<svg width="492" height="517" viewBox="0 0 492 517" fill="none" xmlns="http://www.w3.org/2000/svg">
<rect x="47.5" y="61.5" width="444" height="455" rx="29.5" fill="white"/>
<rect x="47.5" y="61.5" width="444" height="455" rx="29.5" stroke="#010080"/>
<rect x="26.5" y="27.5" width="444" height="455" rx="29.5" fill="white"/>
<rect x="26.5" y="27.5" width="444" height="455" rx="29.5" stroke="#010080"/>
<rect x="0.5" y="0.5" width="453" height="455" rx="29.5" fill="white"/>
<rect x="44" y="227" width="386" height="12" rx="6" fill="#FFCC31" fill-opacity="0.1"/>
<rect x="44" y="227" width="140" height="12" rx="6" fill="#E3A300"/>
<circle cx="184" cy="232" r="10.2941" fill="#FAFAFA" stroke="#E3A300" stroke-width="7.41176"/>
<g clip-path="url(#clip0_22_78)">
<path d="M48.088 274.14C47.0893 274.14 46.2913 273.874 45.694 273.342C45.0967 272.801 44.7327 272.101 44.602 271.242H45.834C45.9553 271.849 46.212 272.315 46.604 272.642C47.0053 272.969 47.4907 273.132 48.06 273.132C48.6573 273.132 49.1613 272.945 49.572 272.572C49.992 272.199 50.202 271.606 50.202 270.794C50.202 269.982 49.992 269.375 49.572 268.974C49.1613 268.563 48.6387 268.358 48.004 268.358C47.5467 268.358 47.15 268.451 46.814 268.638C46.478 268.825 46.254 269.044 46.142 269.296H45.106L45.568 263.92H50.888V264.928H46.254L46.646 264.508L46.324 268.568L46.058 268.47C46.226 268.19 46.4967 267.947 46.87 267.742C47.2433 267.537 47.7007 267.434 48.242 267.434C48.8673 267.434 49.418 267.569 49.894 267.84C50.3793 268.111 50.7573 268.498 51.028 269.002C51.308 269.497 51.448 270.094 51.448 270.794C51.448 271.494 51.308 272.096 51.028 272.6C50.7573 273.095 50.37 273.477 49.866 273.748C49.3713 274.009 48.7787 274.14 48.088 274.14ZM53.5292 276.016V275.442C53.7998 275.339 53.9958 275.176 54.1172 274.952C54.2385 274.737 54.2992 274.406 54.2992 273.958L54.7332 274H53.5292V272.572H54.9432V273.706C54.9432 274.303 54.8312 274.798 54.6072 275.19C54.3832 275.582 54.0238 275.857 53.5292 276.016ZM60.7792 274.14C59.9859 274.14 59.2905 273.921 58.6932 273.482C58.1052 273.034 57.6432 272.418 57.3072 271.634C56.9805 270.841 56.8172 269.935 56.8172 268.918C56.8172 267.901 56.9805 267.009 57.3072 266.244C57.6339 265.469 58.0959 264.867 58.6932 264.438C59.2905 263.999 59.9859 263.78 60.7792 263.78C61.5725 263.78 62.2632 263.999 62.8512 264.438C63.4485 264.867 63.9105 265.469 64.2372 266.244C64.5732 267.009 64.7412 267.901 64.7412 268.918C64.7412 269.945 64.5732 270.85 64.2372 271.634C63.9105 272.418 63.4485 273.034 62.8512 273.482C62.2632 273.921 61.5725 274.14 60.7792 274.14ZM60.7792 273.132C61.3485 273.132 61.8339 272.964 62.2352 272.628C62.6365 272.283 62.9445 271.797 63.1592 271.172C63.3739 270.537 63.4812 269.781 63.4812 268.904C63.4812 268.036 63.3739 267.294 63.1592 266.678C62.9539 266.062 62.6505 265.595 62.2492 265.278C61.8479 264.951 61.3579 264.788 60.7792 264.788C60.2005 264.788 59.7105 264.951 59.3092 265.278C58.9079 265.605 58.5999 266.076 58.3852 266.692C58.1799 267.299 58.0772 268.036 58.0772 268.904C58.0772 269.781 58.1845 270.537 58.3992 271.172C58.6139 271.807 58.9219 272.292 59.3232 272.628C59.7245 272.964 60.2099 273.132 60.7792 273.132ZM71.3085 274.14C70.5152 274.14 69.8198 273.921 69.2225 273.482C68.6345 273.034 68.1725 272.418 67.8365 271.634C67.5098 270.841 67.3465 269.935 67.3465 268.918C67.3465 267.901 67.5098 267.009 67.8365 266.244C68.1632 265.469 68.6252 264.867 69.2225 264.438C69.8198 263.999 70.5152 263.78 71.3085 263.78C72.1018 263.78 72.7925 263.999 73.3805 264.438C73.9778 264.867 74.4398 265.469 74.7665 266.244C75.1025 267.009 75.2705 267.901 75.2705 268.918C75.2705 269.945 75.1025 270.85 74.7665 271.634C74.4398 272.418 73.9778 273.034 73.3805 273.482C72.7925 273.921 72.1018 274.14 71.3085 274.14ZM71.3085 273.132C71.8778 273.132 72.3632 272.964 72.7645 272.628C73.1658 272.283 73.4738 271.797 73.6885 271.172C73.9032 270.537 74.0105 269.781 74.0105 268.904C74.0105 268.036 73.9032 267.294 73.6885 266.678C73.4832 266.062 73.1798 265.595 72.7785 265.278C72.3772 264.951 71.8872 264.788 71.3085 264.788C70.7298 264.788 70.2398 264.951 69.8385 265.278C69.4372 265.605 69.1292 266.076 68.9145 266.692C68.7092 267.299 68.6065 268.036 68.6065 268.904C68.6065 269.781 68.7138 270.537 68.9285 271.172C69.1432 271.807 69.4512 272.292 69.8525 272.628C70.2538 272.964 70.7392 273.132 71.3085 273.132ZM81.8378 274.14C81.0444 274.14 80.3491 273.921 79.7518 273.482C79.1638 273.034 78.7018 272.418 78.3658 271.634C78.0391 270.841 77.8758 269.935 77.8758 268.918C77.8758 267.901 78.0391 267.009 78.3658 266.244C78.6924 265.469 79.1544 264.867 79.7518 264.438C80.3491 263.999 81.0444 263.78 81.8378 263.78C82.6311 263.78 83.3218 263.999 83.9098 264.438C84.5071 264.867 84.9691 265.469 85.2958 266.244C85.6318 267.009 85.7998 267.901 85.7998 268.918C85.7998 269.945 85.6318 270.85 85.2958 271.634C84.9691 272.418 84.5071 273.034 83.9098 273.482C83.3218 273.921 82.6311 274.14 81.8378 274.14ZM81.8378 273.132C82.4071 273.132 82.8924 272.964 83.2938 272.628C83.6951 272.283 84.0031 271.797 84.2178 271.172C84.4324 270.537 84.5398 269.781 84.5398 268.904C84.5398 268.036 84.4324 267.294 84.2178 266.678C84.0124 266.062 83.7091 265.595 83.3078 265.278C82.9064 264.951 82.4164 264.788 81.8378 264.788C81.2591 264.788 80.7691 264.951 80.3678 265.278C79.9664 265.605 79.6584 266.076 79.4438 266.692C79.2384 267.299 79.1358 268.036 79.1358 268.904C79.1358 269.781 79.2431 270.537 79.4578 271.172C79.6724 271.807 79.9804 272.292 80.3818 272.628C80.7831 272.964 81.2684 273.132 81.8378 273.132ZM95.9227 274.126C94.7467 274.126 93.8087 273.837 93.1087 273.258C92.4181 272.679 92.0121 271.853 91.8907 270.78H93.0107C93.1134 271.555 93.4074 272.138 93.8927 272.53C94.3781 272.922 95.0501 273.118 95.9087 273.118C96.6367 273.118 97.1827 272.983 97.5467 272.712C97.9201 272.432 98.1067 272.026 98.1067 271.494C98.1067 271.037 97.9807 270.673 97.7287 270.402C97.4767 270.131 97.0847 269.907 96.5527 269.73L94.8587 269.142C94.0001 268.843 93.3654 268.484 92.9547 268.064C92.5441 267.635 92.3387 267.093 92.3387 266.44C92.3387 265.899 92.4741 265.432 92.7447 265.04C93.0154 264.639 93.3981 264.326 93.8927 264.102C94.3874 263.878 94.9614 263.766 95.6147 263.766C96.6227 263.766 97.4301 264.032 98.0367 264.564C98.6434 265.087 98.9934 265.833 99.0867 266.804H97.9667C97.8454 266.104 97.5934 265.591 97.2107 265.264C96.8374 264.937 96.2961 264.774 95.5867 264.774C94.9147 264.774 94.3921 264.909 94.0187 265.18C93.6454 265.451 93.4587 265.833 93.4587 266.328C93.4587 266.748 93.5894 267.084 93.8507 267.336C94.1121 267.588 94.5181 267.807 95.0687 267.994L96.8747 268.624C97.6587 268.895 98.2467 269.263 98.6387 269.73C99.0307 270.187 99.2267 270.771 99.2267 271.48C99.2267 272.32 98.9374 272.973 98.3587 273.44C97.7894 273.897 96.9774 274.126 95.9227 274.126ZM101.995 274V266.86H103.115V274H101.995ZM101.911 265.236V263.92H103.199V265.236H101.911ZM109.173 277.01C108.324 277.01 107.614 276.809 107.045 276.408C106.485 276.016 106.144 275.493 106.023 274.84H107.087C107.19 275.213 107.418 275.507 107.773 275.722C108.137 275.946 108.627 276.058 109.243 276.058C109.971 276.058 110.522 275.857 110.895 275.456C111.268 275.064 111.455 274.485 111.455 273.72V272.194L111.595 272.222C111.436 272.763 111.119 273.197 110.643 273.524C110.167 273.841 109.602 274 108.949 274C108.324 274 107.773 273.851 107.297 273.552C106.821 273.244 106.452 272.819 106.191 272.278C105.93 271.737 105.799 271.107 105.799 270.388C105.799 269.66 105.934 269.021 106.205 268.47C106.476 267.919 106.854 267.495 107.339 267.196C107.834 266.888 108.408 266.734 109.061 266.734C109.733 266.734 110.293 266.897 110.741 267.224C111.198 267.551 111.502 268.017 111.651 268.624L111.525 268.638V266.86H112.575V273.72C112.575 274.737 112.272 275.54 111.665 276.128C111.058 276.716 110.228 277.01 109.173 277.01ZM109.229 273.034C109.929 273.034 110.484 272.791 110.895 272.306C111.306 271.821 111.511 271.163 111.511 270.332C111.511 269.52 111.306 268.881 110.895 268.414C110.484 267.938 109.929 267.7 109.229 267.7C108.52 267.7 107.96 267.938 107.549 268.414C107.148 268.89 106.947 269.543 106.947 270.374C106.947 271.186 107.152 271.835 107.563 272.32C107.974 272.796 108.529 273.034 109.229 273.034ZM115.821 274V266.86H116.871V268.54H116.941V274H115.821ZM120.931 274V269.324C120.931 268.783 120.796 268.377 120.525 268.106C120.255 267.835 119.853 267.7 119.321 267.7C118.855 267.7 118.439 267.803 118.075 268.008C117.721 268.213 117.441 268.498 117.235 268.862C117.039 269.226 116.941 269.651 116.941 270.136L116.759 268.442C117.002 267.91 117.371 267.49 117.865 267.182C118.369 266.874 118.939 266.72 119.573 266.72C120.32 266.72 120.917 266.935 121.365 267.364C121.823 267.784 122.051 268.339 122.051 269.03V274H120.931ZM129.543 274C129.506 273.841 129.478 273.659 129.459 273.454C129.45 273.249 129.445 272.987 129.445 272.67H129.375V269.254C129.375 268.713 129.249 268.316 128.997 268.064C128.754 267.803 128.358 267.672 127.807 267.672C127.266 267.672 126.832 267.784 126.505 268.008C126.188 268.223 126.01 268.531 125.973 268.932H124.895C124.942 268.241 125.231 267.7 125.763 267.308C126.295 266.916 126.99 266.72 127.849 266.72C128.736 266.72 129.394 266.93 129.823 267.35C130.252 267.77 130.467 268.4 130.467 269.24V272.67C130.467 272.875 130.481 273.09 130.509 273.314C130.537 273.529 130.574 273.757 130.621 274H129.543ZM127.093 274.14C126.356 274.14 125.768 273.963 125.329 273.608C124.9 273.244 124.685 272.749 124.685 272.124C124.685 271.499 124.9 271.013 125.329 270.668C125.758 270.323 126.384 270.08 127.205 269.94L129.697 269.52V270.444L127.373 270.808C126.85 270.892 126.454 271.032 126.183 271.228C125.912 271.424 125.777 271.709 125.777 272.082C125.777 272.446 125.898 272.721 126.141 272.908C126.393 273.095 126.762 273.188 127.247 273.188C127.872 273.188 128.381 273.048 128.773 272.768C129.174 272.479 129.375 272.105 129.375 271.648L129.557 272.642C129.408 273.118 129.114 273.487 128.675 273.748C128.246 274.009 127.718 274.14 127.093 274.14ZM136.29 274.126C135.497 274.126 134.918 273.949 134.554 273.594C134.2 273.23 134.022 272.707 134.022 272.026V265.194L135.142 264.774V272.012C135.142 272.413 135.245 272.707 135.45 272.894C135.656 273.081 135.992 273.174 136.458 273.174C136.645 273.174 136.804 273.165 136.934 273.146C137.074 273.118 137.186 273.085 137.27 273.048V274C137.177 274.037 137.042 274.065 136.864 274.084C136.696 274.112 136.505 274.126 136.29 274.126ZM132.552 267.812V266.86H137.27V267.812H132.552ZM141.967 274.14C141.501 274.14 141.085 274.047 140.721 273.86C140.357 273.664 140.073 273.393 139.867 273.048C139.662 272.693 139.559 272.287 139.559 271.83V266.86H140.679V271.536C140.679 272.077 140.81 272.483 141.071 272.754C141.342 273.025 141.725 273.16 142.219 273.16C142.667 273.16 143.064 273.057 143.409 272.852C143.755 272.647 144.025 272.362 144.221 271.998C144.427 271.625 144.529 271.2 144.529 270.724L144.711 272.418C144.478 272.95 144.114 273.37 143.619 273.678C143.125 273.986 142.574 274.14 141.967 274.14ZM144.599 274V272.32H144.529V266.86H145.649V274H144.599ZM148.888 274V266.86H149.938V268.68H150.008V274H148.888ZM150.008 270.276L149.826 268.582C149.994 267.975 150.292 267.513 150.722 267.196C151.151 266.879 151.646 266.72 152.206 266.72C152.439 266.72 152.598 266.739 152.682 266.776V267.854C152.635 267.835 152.57 267.826 152.486 267.826C152.402 267.817 152.299 267.812 152.178 267.812C151.468 267.812 150.927 268.027 150.554 268.456C150.19 268.876 150.008 269.483 150.008 270.276ZM157.817 274.14C157.136 274.14 156.534 273.981 156.011 273.664C155.489 273.337 155.078 272.894 154.779 272.334C154.481 271.774 154.331 271.13 154.331 270.402C154.331 269.674 154.476 269.035 154.765 268.484C155.064 267.924 155.479 267.49 156.011 267.182C156.543 266.874 157.155 266.72 157.845 266.72C158.508 266.72 159.082 266.865 159.567 267.154C160.062 267.443 160.44 267.849 160.701 268.372C160.972 268.895 161.107 269.511 161.107 270.22C161.107 270.313 161.103 270.402 161.093 270.486C161.093 270.57 161.084 270.663 161.065 270.766H155.171V269.828H160.379L160.015 270.346C160.015 269.487 159.824 268.829 159.441 268.372C159.068 267.905 158.536 267.672 157.845 267.672C157.136 267.672 156.562 267.919 156.123 268.414C155.694 268.899 155.479 269.557 155.479 270.388C155.479 271.237 155.694 271.919 156.123 272.432C156.562 272.936 157.145 273.188 157.873 273.188C158.331 273.188 158.732 273.09 159.077 272.894C159.423 272.689 159.675 272.399 159.833 272.026H160.897C160.664 272.679 160.272 273.197 159.721 273.58C159.18 273.953 158.545 274.14 157.817 274.14ZM166.216 274.14C165.338 274.14 164.638 273.939 164.116 273.538C163.593 273.127 163.294 272.549 163.22 271.802H164.298C164.363 272.259 164.564 272.609 164.9 272.852C165.236 273.095 165.684 273.216 166.244 273.216C166.738 273.216 167.126 273.123 167.406 272.936C167.686 272.749 167.826 272.483 167.826 272.138C167.826 271.895 167.746 271.685 167.588 271.508C167.429 271.321 167.112 271.167 166.636 271.046L165.488 270.752C164.834 270.584 164.344 270.327 164.018 269.982C163.691 269.627 163.528 269.207 163.528 268.722C163.528 268.106 163.756 267.621 164.214 267.266C164.671 266.902 165.292 266.72 166.076 266.72C166.85 266.72 167.48 266.907 167.966 267.28C168.451 267.653 168.726 268.171 168.792 268.834H167.714C167.648 268.451 167.471 268.157 167.182 267.952C166.892 267.747 166.51 267.644 166.034 267.644C165.576 267.644 165.222 267.733 164.97 267.91C164.718 268.078 164.592 268.321 164.592 268.638C164.592 268.881 164.68 269.091 164.858 269.268C165.044 269.445 165.352 269.595 165.782 269.716L166.902 270.024C167.564 270.201 168.064 270.472 168.4 270.836C168.736 271.2 168.904 271.639 168.904 272.152C168.904 272.777 168.666 273.267 168.19 273.622C167.714 273.967 167.056 274.14 166.216 274.14Z" fill="#77838F"/>
<path d="M308.037 274V265.068L308.331 265.138C308.219 265.39 308.004 265.642 307.687 265.894C307.369 266.146 307.001 266.365 306.581 266.552C306.17 266.739 305.745 266.865 305.307 266.93V265.852C305.745 265.777 306.165 265.647 306.567 265.46C306.968 265.273 307.323 265.049 307.631 264.788C307.948 264.517 308.181 264.228 308.331 263.92H309.157V274H308.037ZM315.429 274.14C314.72 274.14 314.104 274.014 313.581 273.762C313.068 273.51 312.671 273.165 312.391 272.726C312.111 272.287 311.971 271.797 311.971 271.256C311.971 270.752 312.083 270.295 312.307 269.884C312.531 269.473 312.83 269.147 313.203 268.904C313.586 268.661 314.006 268.54 314.463 268.54L314.491 268.834C314.062 268.834 313.675 268.731 313.329 268.526C312.984 268.311 312.713 268.022 312.517 267.658C312.321 267.294 312.223 266.893 312.223 266.454C312.223 265.931 312.359 265.469 312.629 265.068C312.9 264.667 313.278 264.354 313.763 264.13C314.249 263.897 314.809 263.78 315.443 263.78C316.078 263.78 316.633 263.897 317.109 264.13C317.585 264.354 317.959 264.667 318.229 265.068C318.5 265.469 318.635 265.927 318.635 266.44C318.635 266.888 318.537 267.294 318.341 267.658C318.145 268.013 317.875 268.297 317.529 268.512C317.184 268.727 316.792 268.834 316.353 268.834L316.395 268.54C316.862 268.54 317.282 268.661 317.655 268.904C318.029 269.147 318.327 269.473 318.551 269.884C318.775 270.295 318.887 270.752 318.887 271.256C318.887 271.797 318.747 272.287 318.467 272.726C318.187 273.165 317.786 273.51 317.263 273.762C316.75 274.014 316.139 274.14 315.429 274.14ZM315.429 273.132C316.111 273.132 316.647 272.95 317.039 272.586C317.441 272.222 317.641 271.741 317.641 271.144C317.641 270.547 317.445 270.075 317.053 269.73C316.661 269.385 316.12 269.212 315.429 269.212C314.739 269.212 314.197 269.385 313.805 269.73C313.413 270.075 313.217 270.547 313.217 271.144C313.217 271.741 313.413 272.222 313.805 272.586C314.207 272.95 314.748 273.132 315.429 273.132ZM315.429 268.232C316.045 268.232 316.526 268.078 316.871 267.77C317.226 267.462 317.403 267.051 317.403 266.538C317.403 266.006 317.221 265.581 316.857 265.264C316.493 264.947 316.017 264.788 315.429 264.788C314.832 264.788 314.351 264.947 313.987 265.264C313.633 265.581 313.455 266.006 313.455 266.538C313.455 267.051 313.633 267.462 313.987 267.77C314.342 268.078 314.823 268.232 315.429 268.232ZM321.008 276.016V275.442C321.278 275.339 321.474 275.176 321.596 274.952C321.717 274.737 321.778 274.406 321.778 273.958L322.212 274H321.008V272.572H322.422V273.706C322.422 274.303 322.31 274.798 322.086 275.19C321.862 275.582 321.502 275.857 321.008 276.016ZM328.258 274.14C327.464 274.14 326.769 273.921 326.172 273.482C325.584 273.034 325.122 272.418 324.786 271.634C324.459 270.841 324.296 269.935 324.296 268.918C324.296 267.901 324.459 267.009 324.786 266.244C325.112 265.469 325.574 264.867 326.172 264.438C326.769 263.999 327.464 263.78 328.258 263.78C329.051 263.78 329.742 263.999 330.33 264.438C330.927 264.867 331.389 265.469 331.716 266.244C332.052 267.009 332.22 267.901 332.22 268.918C332.22 269.945 332.052 270.85 331.716 271.634C331.389 272.418 330.927 273.034 330.33 273.482C329.742 273.921 329.051 274.14 328.258 274.14ZM328.258 273.132C328.827 273.132 329.312 272.964 329.714 272.628C330.115 272.283 330.423 271.797 330.638 271.172C330.852 270.537 330.96 269.781 330.96 268.904C330.96 268.036 330.852 267.294 330.638 266.678C330.432 266.062 330.129 265.595 329.728 265.278C329.326 264.951 328.836 264.788 328.258 264.788C327.679 264.788 327.189 264.951 326.788 265.278C326.386 265.605 326.078 266.076 325.864 266.692C325.658 267.299 325.556 268.036 325.556 268.904C325.556 269.781 325.663 270.537 325.878 271.172C326.092 271.807 326.4 272.292 326.802 272.628C327.203 272.964 327.688 273.132 328.258 273.132ZM338.787 274.14C337.994 274.14 337.298 273.921 336.701 273.482C336.113 273.034 335.651 272.418 335.315 271.634C334.988 270.841 334.825 269.935 334.825 268.918C334.825 267.901 334.988 267.009 335.315 266.244C335.642 265.469 336.104 264.867 336.701 264.438C337.298 263.999 337.994 263.78 338.787 263.78C339.58 263.78 340.271 263.999 340.859 264.438C341.456 264.867 341.918 265.469 342.245 266.244C342.581 267.009 342.749 267.901 342.749 268.918C342.749 269.945 342.581 270.85 342.245 271.634C341.918 272.418 341.456 273.034 340.859 273.482C340.271 273.921 339.58 274.14 338.787 274.14ZM338.787 273.132C339.356 273.132 339.842 272.964 340.243 272.628C340.644 272.283 340.952 271.797 341.167 271.172C341.382 270.537 341.489 269.781 341.489 268.904C341.489 268.036 341.382 267.294 341.167 266.678C340.962 266.062 340.658 265.595 340.257 265.278C339.856 264.951 339.366 264.788 338.787 264.788C338.208 264.788 337.718 264.951 337.317 265.278C336.916 265.605 336.608 266.076 336.393 266.692C336.188 267.299 336.085 268.036 336.085 268.904C336.085 269.781 336.192 270.537 336.407 271.172C336.622 271.807 336.93 272.292 337.331 272.628C337.732 272.964 338.218 273.132 338.787 273.132ZM349.316 274.14C348.523 274.14 347.828 273.921 347.23 273.482C346.642 273.034 346.18 272.418 345.844 271.634C345.518 270.841 345.354 269.935 345.354 268.918C345.354 267.901 345.518 267.009 345.844 266.244C346.171 265.469 346.633 264.867 347.23 264.438C347.828 263.999 348.523 263.78 349.316 263.78C350.11 263.78 350.8 263.999 351.388 264.438C351.986 264.867 352.448 265.469 352.774 266.244C353.11 267.009 353.278 267.901 353.278 268.918C353.278 269.945 353.11 270.85 352.774 271.634C352.448 272.418 351.986 273.034 351.388 273.482C350.8 273.921 350.11 274.14 349.316 274.14ZM349.316 273.132C349.886 273.132 350.371 272.964 350.772 272.628C351.174 272.283 351.482 271.797 351.696 271.172C351.911 270.537 352.018 269.781 352.018 268.904C352.018 268.036 351.911 267.294 351.696 266.678C351.491 266.062 351.188 265.595 350.786 265.278C350.385 264.951 349.895 264.788 349.316 264.788C348.738 264.788 348.248 264.951 347.846 265.278C347.445 265.605 347.137 266.076 346.922 266.692C346.717 267.299 346.614 268.036 346.614 268.904C346.614 269.781 346.722 270.537 346.936 271.172C347.151 271.807 347.459 272.292 347.86 272.628C348.262 272.964 348.747 273.132 349.316 273.132ZM359.985 274V263.92H361.175L366.957 272.404L366.789 272.432V263.92H367.881V274H366.691L360.909 265.516L361.077 265.488V274H359.985ZM374.136 274.14C373.455 274.14 372.853 273.981 372.33 273.664C371.807 273.337 371.397 272.894 371.098 272.334C370.799 271.774 370.65 271.13 370.65 270.402C370.65 269.674 370.795 269.035 371.084 268.484C371.383 267.924 371.798 267.49 372.33 267.182C372.862 266.874 373.473 266.72 374.164 266.72C374.827 266.72 375.401 266.865 375.886 267.154C376.381 267.443 376.759 267.849 377.02 268.372C377.291 268.895 377.426 269.511 377.426 270.22C377.426 270.313 377.421 270.402 377.412 270.486C377.412 270.57 377.403 270.663 377.384 270.766H371.49V269.828H376.698L376.334 270.346C376.334 269.487 376.143 268.829 375.76 268.372C375.387 267.905 374.855 267.672 374.164 267.672C373.455 267.672 372.881 267.919 372.442 268.414C372.013 268.899 371.798 269.557 371.798 270.388C371.798 271.237 372.013 271.919 372.442 272.432C372.881 272.936 373.464 273.188 374.192 273.188C374.649 273.188 375.051 273.09 375.396 272.894C375.741 272.689 375.993 272.399 376.152 272.026H377.216C376.983 272.679 376.591 273.197 376.04 273.58C375.499 273.953 374.864 274.14 374.136 274.14ZM384.464 274L382.098 270.682L379.27 266.86H380.572L382.756 269.926L385.766 274H384.464ZM382.168 269.982L384.408 266.86H385.668L382.756 270.738L382.168 269.982ZM382.644 270.752L380.222 274H378.948L382.098 269.954L382.644 270.752ZM391.187 274.126C390.394 274.126 389.815 273.949 389.451 273.594C389.096 273.23 388.919 272.707 388.919 272.026V265.194L390.039 264.774V272.012C390.039 272.413 390.142 272.707 390.347 272.894C390.552 273.081 390.888 273.174 391.355 273.174C391.542 273.174 391.7 273.165 391.831 273.146C391.971 273.118 392.083 273.085 392.167 273.048V274C392.074 274.037 391.938 274.065 391.761 274.084C391.593 274.112 391.402 274.126 391.187 274.126ZM387.449 267.812V266.86H392.167V267.812H387.449ZM403.031 274.14C402.004 274.14 401.113 273.93 400.357 273.51C399.601 273.09 399.018 272.502 398.607 271.746C398.196 270.981 397.991 270.08 397.991 269.044C397.991 268.008 398.192 267.098 398.593 266.314C399.004 265.521 399.568 264.9 400.287 264.452C401.015 264.004 401.85 263.78 402.793 263.78C403.53 263.78 404.198 263.92 404.795 264.2C405.402 264.48 405.896 264.867 406.279 265.362C406.671 265.857 406.909 266.431 406.993 267.084H405.845C405.752 266.393 405.43 265.843 404.879 265.432C404.338 265.021 403.656 264.816 402.835 264.816C402.098 264.816 401.454 264.993 400.903 265.348C400.352 265.693 399.923 266.179 399.615 266.804C399.316 267.429 399.167 268.167 399.167 269.016C399.167 269.865 399.321 270.598 399.629 271.214C399.946 271.821 400.399 272.287 400.987 272.614C401.584 272.941 402.298 273.104 403.129 273.104C403.698 273.104 404.207 273.025 404.655 272.866C405.103 272.698 405.509 272.441 405.873 272.096L407.021 272.516C406.508 273.057 405.915 273.463 405.243 273.734C404.58 274.005 403.843 274.14 403.031 274.14ZM405.873 272.516V269.254L406.307 269.688H403.115V268.68H407.021V272.516H405.873ZM413.084 274.14C412.384 274.14 411.768 273.977 411.236 273.65C410.704 273.323 410.289 272.88 409.99 272.32C409.701 271.751 409.556 271.111 409.556 270.402C409.556 269.683 409.705 269.049 410.004 268.498C410.303 267.947 410.713 267.513 411.236 267.196C411.768 266.879 412.384 266.72 413.084 266.72C413.793 266.72 414.409 266.879 414.932 267.196C415.464 267.513 415.875 267.947 416.164 268.498C416.463 269.049 416.612 269.683 416.612 270.402C416.612 271.111 416.463 271.751 416.164 272.32C415.875 272.88 415.464 273.323 414.932 273.65C414.409 273.977 413.793 274.14 413.084 274.14ZM413.084 273.188C413.569 273.188 413.989 273.071 414.344 272.838C414.699 272.595 414.974 272.264 415.17 271.844C415.366 271.424 415.464 270.939 415.464 270.388C415.464 269.567 415.245 268.909 414.806 268.414C414.377 267.919 413.803 267.672 413.084 267.672C412.375 267.672 411.801 267.919 411.362 268.414C410.923 268.909 410.704 269.567 410.704 270.388C410.704 270.939 410.802 271.424 410.998 271.844C411.194 272.264 411.469 272.595 411.824 272.838C412.188 273.071 412.608 273.188 413.084 273.188ZM423.674 274C423.637 273.841 423.609 273.659 423.59 273.454C423.581 273.249 423.576 272.987 423.576 272.67H423.506V269.254C423.506 268.713 423.38 268.316 423.128 268.064C422.885 267.803 422.489 267.672 421.938 267.672C421.397 267.672 420.963 267.784 420.636 268.008C420.319 268.223 420.141 268.531 420.104 268.932H419.026C419.073 268.241 419.362 267.7 419.894 267.308C420.426 266.916 421.121 266.72 421.98 266.72C422.867 266.72 423.525 266.93 423.954 267.35C424.383 267.77 424.598 268.4 424.598 269.24V272.67C424.598 272.875 424.612 273.09 424.64 273.314C424.668 273.529 424.705 273.757 424.752 274H423.674ZM421.224 274.14C420.487 274.14 419.899 273.963 419.46 273.608C419.031 273.244 418.816 272.749 418.816 272.124C418.816 271.499 419.031 271.013 419.46 270.668C419.889 270.323 420.515 270.08 421.336 269.94L423.828 269.52V270.444L421.504 270.808C420.981 270.892 420.585 271.032 420.314 271.228C420.043 271.424 419.908 271.709 419.908 272.082C419.908 272.446 420.029 272.721 420.272 272.908C420.524 273.095 420.893 273.188 421.378 273.188C422.003 273.188 422.512 273.048 422.904 272.768C423.305 272.479 423.506 272.105 423.506 271.648L423.688 272.642C423.539 273.118 423.245 273.487 422.806 273.748C422.377 274.009 421.849 274.14 421.224 274.14ZM427.757 274V263.92H428.877V274H427.757Z" fill="#77838F"/>
</g>
<rect x="44" y="336.5" width="61" height="61" rx="30.5" fill="#FFCC31" fill-opacity="0.1"/>
<path d="M74.5 354.362C71.078 354.362 68.2959 357.144 68.2959 360.566C68.2959 363.923 70.9212 366.64 74.3433 366.757C74.4478 366.744 74.5523 366.744 74.6306 366.757C74.6568 366.757 74.6698 366.757 74.696 366.757C74.709 366.757 74.709 366.757 74.7221 366.757C78.0658 366.64 80.6911 363.923 80.7042 360.566C80.7042 357.144 77.9221 354.362 74.5 354.362Z" fill="#010080"/>
<path d="M81.135 370.232C77.4909 367.802 71.548 367.802 67.8778 370.232C66.219 371.342 65.3047 372.844 65.3047 374.451C65.3047 376.057 66.219 377.546 67.8647 378.643C69.6933 379.871 72.0966 380.485 74.4999 380.485C76.9032 380.485 79.3064 379.871 81.135 378.643C82.7808 377.533 83.6951 376.044 83.6951 374.424C83.682 372.818 82.7808 371.329 81.135 370.232Z" fill="#010080"/>
<path d="M126.62 361.126C125.444 361.126 124.506 360.837 123.806 360.258C123.115 359.679 122.709 358.853 122.588 357.78H123.708C123.811 358.555 124.105 359.138 124.59 359.53C125.075 359.922 125.747 360.118 126.606 360.118C127.334 360.118 127.88 359.983 128.244 359.712C128.617 359.432 128.804 359.026 128.804 358.494C128.804 358.037 128.678 357.673 128.426 357.402C128.174 357.131 127.782 356.907 127.25 356.73L125.556 356.142C124.697 355.843 124.063 355.484 123.652 355.064C123.241 354.635 123.036 354.093 123.036 353.44C123.036 352.899 123.171 352.432 123.442 352.04C123.713 351.639 124.095 351.326 124.59 351.102C125.085 350.878 125.659 350.766 126.312 350.766C127.32 350.766 128.127 351.032 128.734 351.564C129.341 352.087 129.691 352.833 129.784 353.804H128.664C128.543 353.104 128.291 352.591 127.908 352.264C127.535 351.937 126.993 351.774 126.284 351.774C125.612 351.774 125.089 351.909 124.716 352.18C124.343 352.451 124.156 352.833 124.156 353.328C124.156 353.748 124.287 354.084 124.548 354.336C124.809 354.588 125.215 354.807 125.766 354.994L127.572 355.624C128.356 355.895 128.944 356.263 129.336 356.73C129.728 357.187 129.924 357.771 129.924 358.48C129.924 359.32 129.635 359.973 129.056 360.44C128.487 360.897 127.675 361.126 126.62 361.126ZM134.494 361.126C133.7 361.126 133.122 360.949 132.758 360.594C132.403 360.23 132.226 359.707 132.226 359.026V352.194L133.346 351.774V359.012C133.346 359.413 133.448 359.707 133.654 359.894C133.859 360.081 134.195 360.174 134.662 360.174C134.848 360.174 135.007 360.165 135.138 360.146C135.278 360.118 135.39 360.085 135.474 360.048V361C135.38 361.037 135.245 361.065 135.068 361.084C134.9 361.112 134.708 361.126 134.494 361.126ZM130.756 354.812V353.86H135.474V354.812H130.756ZM141.297 361C141.26 360.841 141.232 360.659 141.213 360.454C141.204 360.249 141.199 359.987 141.199 359.67H141.129V356.254C141.129 355.713 141.003 355.316 140.751 355.064C140.508 354.803 140.112 354.672 139.561 354.672C139.02 354.672 138.586 354.784 138.259 355.008C137.942 355.223 137.764 355.531 137.727 355.932H136.649C136.696 355.241 136.985 354.7 137.517 354.308C138.049 353.916 138.744 353.72 139.603 353.72C140.49 353.72 141.148 353.93 141.577 354.35C142.006 354.77 142.221 355.4 142.221 356.24V359.67C142.221 359.875 142.235 360.09 142.263 360.314C142.291 360.529 142.328 360.757 142.375 361H141.297ZM138.847 361.14C138.11 361.14 137.522 360.963 137.083 360.608C136.654 360.244 136.439 359.749 136.439 359.124C136.439 358.499 136.654 358.013 137.083 357.668C137.512 357.323 138.138 357.08 138.959 356.94L141.451 356.52V357.444L139.127 357.808C138.604 357.892 138.208 358.032 137.937 358.228C137.666 358.424 137.531 358.709 137.531 359.082C137.531 359.446 137.652 359.721 137.895 359.908C138.147 360.095 138.516 360.188 139.001 360.188C139.626 360.188 140.135 360.048 140.527 359.768C140.928 359.479 141.129 359.105 141.129 358.648L141.311 359.642C141.162 360.118 140.868 360.487 140.429 360.748C140 361.009 139.472 361.14 138.847 361.14ZM144.38 361V353.86H145.43V355.68H145.5V361H144.38ZM145.5 357.276L145.318 355.582C145.486 354.975 145.784 354.513 146.214 354.196C146.643 353.879 147.138 353.72 147.698 353.72C147.931 353.72 148.09 353.739 148.174 353.776V354.854C148.127 354.835 148.062 354.826 147.978 354.826C147.894 354.817 147.791 354.812 147.67 354.812C146.96 354.812 146.419 355.027 146.046 355.456C145.682 355.876 145.5 356.483 145.5 357.276ZM152.65 361.126C151.856 361.126 151.278 360.949 150.914 360.594C150.559 360.23 150.382 359.707 150.382 359.026V352.194L151.502 351.774V359.012C151.502 359.413 151.604 359.707 151.81 359.894C152.015 360.081 152.351 360.174 152.818 360.174C153.004 360.174 153.163 360.165 153.294 360.146C153.434 360.118 153.546 360.085 153.63 360.048V361C153.536 361.037 153.401 361.065 153.224 361.084C153.056 361.112 152.864 361.126 152.65 361.126ZM148.912 354.812V353.86H153.63V354.812H148.912ZM157.847 361.14C157.165 361.14 156.563 360.981 156.041 360.664C155.518 360.337 155.107 359.894 154.809 359.334C154.51 358.774 154.361 358.13 154.361 357.402C154.361 356.674 154.505 356.035 154.795 355.484C155.093 354.924 155.509 354.49 156.041 354.182C156.573 353.874 157.184 353.72 157.875 353.72C158.537 353.72 159.111 353.865 159.597 354.154C160.091 354.443 160.469 354.849 160.731 355.372C161.001 355.895 161.137 356.511 161.137 357.22C161.137 357.313 161.132 357.402 161.123 357.486C161.123 357.57 161.113 357.663 161.095 357.766H155.201V356.828H160.409L160.045 357.346C160.045 356.487 159.853 355.829 159.471 355.372C159.097 354.905 158.565 354.672 157.875 354.672C157.165 354.672 156.591 354.919 156.153 355.414C155.723 355.899 155.509 356.557 155.509 357.388C155.509 358.237 155.723 358.919 156.153 359.432C156.591 359.936 157.175 360.188 157.903 360.188C158.36 360.188 158.761 360.09 159.107 359.894C159.452 359.689 159.704 359.399 159.863 359.026H160.927C160.693 359.679 160.301 360.197 159.751 360.58C159.209 360.953 158.575 361.14 157.847 361.14ZM168.017 361V359.334L168.157 359.376C167.98 359.917 167.653 360.347 167.177 360.664C166.71 360.981 166.15 361.14 165.497 361.14C164.853 361.14 164.288 360.986 163.803 360.678C163.327 360.37 162.954 359.941 162.683 359.39C162.422 358.839 162.291 358.195 162.291 357.458C162.291 356.711 162.426 356.058 162.697 355.498C162.968 354.938 163.346 354.504 163.831 354.196C164.316 353.888 164.886 353.734 165.539 353.734C166.211 353.734 166.776 353.897 167.233 354.224C167.69 354.551 168.003 355.013 168.171 355.61L167.947 355.638V350.92H169.067V361H168.017ZM165.707 360.16C166.426 360.16 166.986 359.917 167.387 359.432C167.798 358.937 168.003 358.265 168.003 357.416C168.003 356.585 167.798 355.927 167.387 355.442C166.976 354.957 166.416 354.714 165.707 354.714C164.998 354.714 164.442 354.957 164.041 355.442C163.64 355.927 163.439 356.599 163.439 357.458C163.439 358.298 163.64 358.961 164.041 359.446C164.442 359.922 164.998 360.16 165.707 360.16ZM177.644 361.126C176.972 361.126 176.407 360.963 175.95 360.636C175.493 360.309 175.18 359.847 175.012 359.25L175.166 359.222V361H174.116V350.92H175.236V355.526L175.082 355.484C175.259 354.933 175.581 354.504 176.048 354.196C176.524 353.879 177.089 353.72 177.742 353.72C178.377 353.72 178.927 353.874 179.394 354.182C179.87 354.49 180.239 354.919 180.5 355.47C180.761 356.021 180.892 356.665 180.892 357.402C180.892 358.149 180.757 358.802 180.486 359.362C180.215 359.922 179.837 360.356 179.352 360.664C178.867 360.972 178.297 361.126 177.644 361.126ZM177.476 360.146C178.185 360.146 178.741 359.903 179.142 359.418C179.543 358.923 179.744 358.251 179.744 357.402C179.744 356.562 179.543 355.904 179.142 355.428C178.741 354.943 178.185 354.7 177.476 354.7C176.767 354.7 176.207 354.947 175.796 355.442C175.385 355.927 175.18 356.595 175.18 357.444C175.18 358.275 175.385 358.933 175.796 359.418C176.207 359.903 176.767 360.146 177.476 360.146ZM183.017 363.87L184.613 360.16L184.865 359.768L187.203 353.86H188.351L184.207 363.87H183.017ZM184.739 361.07L181.533 353.86H182.765L185.523 360.314L184.739 361.07Z" fill="#77838F"/>
<path d="M122.738 380.675C122.738 379.189 123.283 377.913 124.372 376.847C125.457 375.78 126.76 375.247 128.282 375.247C129.786 375.247 131.076 375.785 132.151 376.86C133.231 377.936 133.771 379.228 133.771 380.736C133.771 382.254 133.229 383.541 132.145 384.599C131.055 385.66 129.741 386.191 128.2 386.191C126.838 386.191 125.614 385.72 124.529 384.776C123.335 383.733 122.738 382.366 122.738 380.675ZM124.345 380.695C124.345 381.862 124.737 382.821 125.521 383.573C126.3 384.325 127.2 384.701 128.221 384.701C129.328 384.701 130.262 384.318 131.023 383.553C131.785 382.778 132.165 381.835 132.165 380.723C132.165 379.597 131.789 378.654 131.037 377.893C130.29 377.127 129.365 376.744 128.262 376.744C127.163 376.744 126.236 377.127 125.479 377.893C124.723 378.649 124.345 379.583 124.345 380.695ZM137.019 374.454V386H135.48V374.454H137.019ZM143.875 379.342H145.42V386H143.875V385.303C143.242 385.895 142.56 386.191 141.831 386.191C140.91 386.191 140.149 385.859 139.548 385.193C138.951 384.514 138.652 383.667 138.652 382.65C138.652 381.652 138.951 380.821 139.548 380.155C140.145 379.49 140.892 379.157 141.79 379.157C142.565 379.157 143.26 379.476 143.875 380.114V379.342ZM140.225 382.65C140.225 383.288 140.396 383.808 140.737 384.209C141.088 384.615 141.53 384.817 142.063 384.817C142.633 384.817 143.093 384.621 143.444 384.229C143.795 383.824 143.971 383.309 143.971 382.685C143.971 382.06 143.795 381.545 143.444 381.14C143.093 380.743 142.638 380.545 142.077 380.545C141.549 380.545 141.106 380.745 140.751 381.146C140.4 381.552 140.225 382.053 140.225 382.65ZM148.899 374.454V381.495L151.066 379.342H153.131L150.239 382.138L153.343 386H151.347L149.146 383.19L148.899 383.437V386H147.361V374.454H148.899ZM155.913 379.342V383.163C155.913 384.266 156.348 384.817 157.219 384.817C158.089 384.817 158.524 384.266 158.524 383.163V379.342H160.062V383.197C160.062 383.73 159.996 384.191 159.864 384.578C159.737 384.924 159.516 385.237 159.201 385.515C158.682 385.966 158.021 386.191 157.219 386.191C156.421 386.191 155.763 385.966 155.243 385.515C154.924 385.237 154.699 384.924 154.566 384.578C154.439 384.268 154.375 383.808 154.375 383.197V379.342H155.913ZM162.004 379.342H163.549V379.957C164.087 379.424 164.693 379.157 165.367 379.157C166.142 379.157 166.746 379.401 167.179 379.889C167.552 380.303 167.739 380.98 167.739 381.919V386H166.194V382.281C166.194 381.625 166.103 381.172 165.921 380.921C165.743 380.666 165.42 380.538 164.95 380.538C164.44 380.538 164.077 380.707 163.863 381.044C163.654 381.377 163.549 381.958 163.549 382.787V386H162.004V379.342ZM171.226 374.454V380.114C171.841 379.476 172.538 379.157 173.317 379.157C174.215 379.157 174.963 379.492 175.56 380.162C176.157 380.827 176.455 381.657 176.455 382.65C176.455 383.676 176.154 384.523 175.553 385.193C174.956 385.859 174.201 386.191 173.29 386.191C172.52 386.191 171.832 385.895 171.226 385.303V386H169.688V374.454H171.226ZM174.883 382.719C174.883 382.081 174.71 381.561 174.363 381.16C174.012 380.75 173.573 380.545 173.044 380.545C172.479 380.545 172.019 380.743 171.663 381.14C171.312 381.532 171.137 382.042 171.137 382.671C171.137 383.318 171.31 383.835 171.656 384.223C172.003 384.619 172.458 384.817 173.023 384.817C173.557 384.817 173.999 384.619 174.35 384.223C174.705 383.822 174.883 383.32 174.883 382.719ZM179.62 379.342V386H178.082V379.342H179.62ZM177.85 376.573C177.85 376.304 177.948 376.072 178.144 375.876C178.34 375.68 178.574 375.582 178.848 375.582C179.126 375.582 179.363 375.68 179.559 375.876C179.755 376.067 179.853 376.302 179.853 376.58C179.853 376.858 179.755 377.095 179.559 377.291C179.367 377.487 179.132 377.585 178.854 377.585C178.576 377.585 178.34 377.487 178.144 377.291C177.948 377.095 177.85 376.856 177.85 376.573ZM185.656 380.675C185.656 379.189 186.201 377.913 187.29 376.847C188.375 375.78 189.678 375.247 191.2 375.247C192.704 375.247 193.994 375.785 195.069 376.86C196.149 377.936 196.689 379.228 196.689 380.736C196.689 382.254 196.147 383.541 195.062 384.599C193.973 385.66 192.659 386.191 191.118 386.191C189.756 386.191 188.532 385.72 187.447 384.776C186.253 383.733 185.656 382.366 185.656 380.675ZM187.263 380.695C187.263 381.862 187.655 382.821 188.438 383.573C189.218 384.325 190.118 384.701 191.139 384.701C192.246 384.701 193.18 384.318 193.941 383.553C194.702 382.778 195.083 381.835 195.083 380.723C195.083 379.597 194.707 378.654 193.955 377.893C193.208 377.127 192.283 376.744 191.18 376.744C190.081 376.744 189.154 377.127 188.397 377.893C187.641 378.649 187.263 379.583 187.263 380.695ZM199.937 374.454V386H198.398V374.454H199.937ZM206.793 379.342H208.338V386H206.793V385.303C206.16 385.895 205.478 386.191 204.749 386.191C203.828 386.191 203.067 385.859 202.466 385.193C201.869 384.514 201.57 383.667 201.57 382.65C201.57 381.652 201.869 380.821 202.466 380.155C203.063 379.49 203.81 379.157 204.708 379.157C205.483 379.157 206.178 379.476 206.793 380.114V379.342ZM203.143 382.65C203.143 383.288 203.313 383.808 203.655 384.209C204.006 384.615 204.448 384.817 204.981 384.817C205.551 384.817 206.011 384.621 206.362 384.229C206.713 383.824 206.889 383.309 206.889 382.685C206.889 382.06 206.713 381.545 206.362 381.14C206.011 380.743 205.556 380.545 204.995 380.545C204.466 380.545 204.024 380.745 203.669 381.146C203.318 381.552 203.143 382.053 203.143 382.65ZM211.817 374.454V380.114C212.433 379.476 213.13 379.157 213.909 379.157C214.807 379.157 215.554 379.492 216.151 380.162C216.748 380.827 217.047 381.657 217.047 382.65C217.047 383.676 216.746 384.523 216.145 385.193C215.548 385.859 214.793 386.191 213.882 386.191C213.112 386.191 212.424 385.895 211.817 385.303V386H210.279V374.454H211.817ZM215.475 382.719C215.475 382.081 215.301 381.561 214.955 381.16C214.604 380.75 214.164 380.545 213.636 380.545C213.071 380.545 212.61 380.743 212.255 381.14C211.904 381.532 211.729 382.042 211.729 382.671C211.729 383.318 211.902 383.835 212.248 384.223C212.594 384.619 213.05 384.817 213.615 384.817C214.148 384.817 214.59 384.619 214.941 384.223C215.297 383.822 215.475 383.32 215.475 382.719ZM218.359 382.623C218.359 381.661 218.703 380.843 219.392 380.169C220.08 379.494 220.918 379.157 221.907 379.157C222.901 379.157 223.744 379.497 224.437 380.176C225.12 380.855 225.462 381.689 225.462 382.678C225.462 383.676 225.118 384.512 224.43 385.187C223.737 385.856 222.887 386.191 221.88 386.191C220.882 386.191 220.046 385.85 219.371 385.166C218.697 384.492 218.359 383.644 218.359 382.623ZM219.932 382.65C219.932 383.316 220.109 383.842 220.465 384.229C220.829 384.621 221.31 384.817 221.907 384.817C222.509 384.817 222.99 384.624 223.35 384.236C223.71 383.849 223.89 383.332 223.89 382.685C223.89 382.037 223.71 381.52 223.35 381.133C222.985 380.741 222.504 380.545 221.907 380.545C221.319 380.545 220.843 380.741 220.479 381.133C220.114 381.525 219.932 382.031 219.932 382.65ZM232.004 374.454H233.549V386H232.004V385.303C231.398 385.895 230.712 386.191 229.946 386.191C229.035 386.191 228.278 385.859 227.677 385.193C227.08 384.514 226.781 383.667 226.781 382.65C226.781 381.657 227.08 380.827 227.677 380.162C228.269 379.492 229.014 379.157 229.912 379.157C230.691 379.157 231.389 379.476 232.004 380.114V374.454ZM228.354 382.65C228.354 383.288 228.524 383.808 228.866 384.209C229.217 384.615 229.659 384.817 230.192 384.817C230.762 384.817 231.222 384.621 231.573 384.229C231.924 383.824 232.1 383.309 232.1 382.685C232.1 382.06 231.924 381.545 231.573 381.14C231.222 380.743 230.767 380.545 230.206 380.545C229.677 380.545 229.235 380.745 228.88 381.146C228.529 381.552 228.354 382.053 228.354 382.65ZM241.554 383.033H236.782C236.823 383.58 237.001 384.015 237.315 384.339C237.63 384.658 238.033 384.817 238.525 384.817C238.908 384.817 239.225 384.726 239.476 384.544C239.722 384.362 240.002 384.024 240.316 383.532L241.615 384.257C241.415 384.599 241.203 384.893 240.979 385.139C240.756 385.38 240.517 385.581 240.262 385.74C240.007 385.895 239.731 386.009 239.435 386.082C239.138 386.155 238.817 386.191 238.471 386.191C237.477 386.191 236.68 385.872 236.078 385.234C235.477 384.592 235.176 383.74 235.176 382.678C235.176 381.625 235.467 380.773 236.051 380.121C236.639 379.479 237.418 379.157 238.389 379.157C239.368 379.157 240.143 379.469 240.713 380.094C241.278 380.714 241.561 381.573 241.561 382.671L241.554 383.033ZM239.975 381.775C239.76 380.955 239.243 380.545 238.423 380.545C238.236 380.545 238.061 380.575 237.896 380.634C237.732 380.688 237.582 380.771 237.445 380.88C237.313 380.985 237.199 381.112 237.104 381.263C237.008 381.413 236.935 381.584 236.885 381.775H239.975ZM247.33 380.675C247.33 379.189 247.875 377.913 248.964 376.847C250.049 375.78 251.352 375.247 252.874 375.247C254.378 375.247 255.668 375.785 256.743 376.86C257.823 377.936 258.363 379.228 258.363 380.736C258.363 382.254 257.821 383.541 256.736 384.599C255.647 385.66 254.332 386.191 252.792 386.191C251.429 386.191 250.206 385.72 249.121 384.776C247.927 383.733 247.33 382.366 247.33 380.675ZM248.937 380.695C248.937 381.862 249.328 382.821 250.112 383.573C250.892 384.325 251.792 384.701 252.812 384.701C253.92 384.701 254.854 384.318 255.615 383.553C256.376 382.778 256.757 381.835 256.757 380.723C256.757 379.597 256.381 378.654 255.629 377.893C254.882 377.127 253.956 376.744 252.854 376.744C251.755 376.744 250.828 377.127 250.071 377.893C249.315 378.649 248.937 379.583 248.937 380.695ZM261.61 374.454V386H260.072V374.454H261.61ZM265.097 379.342V383.163C265.097 384.266 265.532 384.817 266.402 384.817C267.273 384.817 267.708 384.266 267.708 383.163V379.342H269.246V383.197C269.246 383.73 269.18 384.191 269.048 384.578C268.92 384.924 268.699 385.237 268.385 385.515C267.865 385.966 267.204 386.191 266.402 386.191C265.605 386.191 264.946 385.966 264.427 385.515C264.108 385.237 263.882 384.924 263.75 384.578C263.622 384.268 263.559 383.808 263.559 383.197V379.342H265.097ZM272.021 379.342L273.765 383.143L275.645 378.733L277.538 383.143L279.261 379.342H280.983L277.497 386.499L275.645 382.213L273.771 386.499L270.292 379.342H272.021ZM286.705 379.342H288.25V386H286.705V385.303C286.072 385.895 285.39 386.191 284.661 386.191C283.741 386.191 282.979 385.859 282.378 385.193C281.781 384.514 281.482 383.667 281.482 382.65C281.482 381.652 281.781 380.821 282.378 380.155C282.975 379.49 283.722 379.157 284.62 379.157C285.395 379.157 286.09 379.476 286.705 380.114V379.342ZM283.055 382.65C283.055 383.288 283.226 383.808 283.567 384.209C283.918 384.615 284.36 384.817 284.894 384.817C285.463 384.817 285.924 384.621 286.274 384.229C286.625 383.824 286.801 383.309 286.801 382.685C286.801 382.06 286.625 381.545 286.274 381.14C285.924 380.743 285.468 380.545 284.907 380.545C284.379 380.545 283.937 380.745 283.581 381.146C283.23 381.552 283.055 382.053 283.055 382.65ZM291.729 374.454V381.495L293.896 379.342H295.961L293.069 382.138L296.173 386H294.177L291.976 383.19L291.729 383.437V386H290.191V374.454H291.729ZM301.826 379.342H303.371V386H301.826V385.303C301.193 385.895 300.511 386.191 299.782 386.191C298.862 386.191 298.101 385.859 297.499 385.193C296.902 384.514 296.604 383.667 296.604 382.65C296.604 381.652 296.902 380.821 297.499 380.155C298.096 379.49 298.843 379.157 299.741 379.157C300.516 379.157 301.211 379.476 301.826 380.114V379.342ZM298.176 382.65C298.176 383.288 298.347 383.808 298.688 384.209C299.039 384.615 299.481 384.817 300.015 384.817C300.584 384.817 301.045 384.621 301.396 384.229C301.746 383.824 301.922 383.309 301.922 382.685C301.922 382.06 301.746 381.545 301.396 381.14C301.045 380.743 300.589 380.545 300.028 380.545C299.5 380.545 299.058 380.745 298.702 381.146C298.351 381.552 298.176 382.053 298.176 382.65ZM307.534 384.763L304.54 379.342H306.324L308.361 383.17L310.262 379.342H311.998L306.693 389.623H304.937L307.534 384.763ZM312.463 382.623C312.463 381.661 312.807 380.843 313.495 380.169C314.183 379.494 315.022 379.157 316.011 379.157C317.004 379.157 317.847 379.497 318.54 380.176C319.224 380.855 319.565 381.689 319.565 382.678C319.565 383.676 319.221 384.512 318.533 385.187C317.84 385.856 316.991 386.191 315.983 386.191C314.985 386.191 314.149 385.85 313.475 385.166C312.8 384.492 312.463 383.644 312.463 382.623ZM314.035 382.65C314.035 383.316 314.213 383.842 314.568 384.229C314.933 384.621 315.414 384.817 316.011 384.817C316.612 384.817 317.093 384.624 317.453 384.236C317.813 383.849 317.993 383.332 317.993 382.685C317.993 382.037 317.813 381.52 317.453 381.133C317.089 380.741 316.608 380.545 316.011 380.545C315.423 380.545 314.947 380.741 314.582 381.133C314.217 381.525 314.035 382.031 314.035 382.65ZM326.107 374.454H327.652V386H326.107V385.303C325.501 385.895 324.815 386.191 324.05 386.191C323.138 386.191 322.382 385.859 321.78 385.193C321.183 384.514 320.885 383.667 320.885 382.65C320.885 381.657 321.183 380.827 321.78 380.162C322.373 379.492 323.118 379.157 324.016 379.157C324.795 379.157 325.492 379.476 326.107 380.114V374.454ZM322.457 382.65C322.457 383.288 322.628 383.808 322.97 384.209C323.321 384.615 323.763 384.817 324.296 384.817C324.866 384.817 325.326 384.621 325.677 384.229C326.028 383.824 326.203 383.309 326.203 382.685C326.203 382.06 326.028 381.545 325.677 381.14C325.326 380.743 324.87 380.545 324.31 380.545C323.781 380.545 323.339 380.745 322.983 381.146C322.632 381.552 322.457 382.053 322.457 382.65ZM335.657 383.033H330.886C330.927 383.58 331.104 384.015 331.419 384.339C331.733 384.658 332.137 384.817 332.629 384.817C333.012 384.817 333.328 384.726 333.579 384.544C333.825 384.362 334.105 384.024 334.42 383.532L335.719 384.257C335.518 384.599 335.306 384.893 335.083 385.139C334.86 385.38 334.62 385.581 334.365 385.74C334.11 385.895 333.834 386.009 333.538 386.082C333.242 386.155 332.921 386.191 332.574 386.191C331.581 386.191 330.783 385.872 330.182 385.234C329.58 384.592 329.279 383.74 329.279 382.678C329.279 381.625 329.571 380.773 330.154 380.121C330.742 379.479 331.521 379.157 332.492 379.157C333.472 379.157 334.247 379.469 334.816 380.094C335.382 380.714 335.664 381.573 335.664 382.671L335.657 383.033ZM334.078 381.775C333.864 380.955 333.347 380.545 332.526 380.545C332.34 380.545 332.164 380.575 332 380.634C331.836 380.688 331.686 380.771 331.549 380.88C331.417 380.985 331.303 381.112 331.207 381.263C331.111 381.413 331.038 381.584 330.988 381.775H334.078Z" fill="#1A1A1A"/>
<path d="M40.082 67.9219V80.8613H44.5156V83H37.8066V67.9219H40.082ZM48.9492 67.9219V83H46.6738V67.9219H48.9492ZM53.334 67.9219L57.5039 78.3711L61.7324 67.9219H64.2227L57.4551 84.1328L50.8438 67.9219H53.334ZM74.4277 70.0605H68.3828V73.6836H74.252V75.8223H68.3828V80.8613H74.4277V83H66.1074V67.9219H74.4277V70.0605ZM83.5879 83V67.9219H85.8535C86.8626 67.9219 87.6667 68 88.2656 68.1562C88.8711 68.3125 89.3822 68.5762 89.7988 68.9473C90.222 69.3314 90.5573 69.8099 90.8047 70.3828C91.0586 70.9622 91.1855 71.5482 91.1855 72.1406C91.1855 73.2214 90.7721 74.1361 89.9453 74.8848C90.7461 75.1582 91.3776 75.6367 91.8398 76.3203C92.3086 76.9974 92.543 77.7852 92.543 78.6836C92.543 79.862 92.1263 80.8581 91.293 81.6719C90.7917 82.1732 90.2285 82.5215 89.6035 82.7168C88.9199 82.9056 88.0638 83 87.0352 83H83.5879ZM85.8633 74.3965H86.5762C87.4225 74.3965 88.041 74.2109 88.4316 73.8398C88.8288 73.4622 89.0273 72.9089 89.0273 72.1797C89.0273 71.4701 88.8255 70.9329 88.4219 70.5684C88.0182 70.1973 87.4323 70.0117 86.6641 70.0117H85.8633V74.3965ZM85.8633 80.8613H87.2695C88.2982 80.8613 89.0534 80.6595 89.5352 80.2559C90.043 79.8197 90.2969 79.2663 90.2969 78.5957C90.2969 77.9447 90.0527 77.3978 89.5645 76.9551C89.0892 76.5189 88.2396 76.3008 87.0156 76.3008H85.8633V80.8613ZM100.531 76.5742L105.199 83H102.416L98.1094 76.8281H97.6992V83H95.4238V67.9219H98.0898C100.082 67.9219 101.521 68.2962 102.406 69.0449C103.383 69.8783 103.871 70.9785 103.871 72.3457C103.871 73.4134 103.565 74.3314 102.953 75.0996C102.341 75.8678 101.534 76.3594 100.531 76.5742ZM97.6992 74.8457H98.4219C100.577 74.8457 101.654 74.0221 101.654 72.375C101.654 70.832 100.606 70.0605 98.5098 70.0605H97.6992V74.8457ZM106.371 75.3926C106.371 73.2702 107.149 71.4473 108.705 69.9238C110.255 68.4004 112.117 67.6387 114.291 67.6387C116.439 67.6387 118.282 68.4069 119.818 69.9434C121.361 71.4798 122.133 73.3255 122.133 75.4805C122.133 77.6484 121.358 79.4876 119.809 80.998C118.253 82.515 116.374 83.2734 114.174 83.2734C112.227 83.2734 110.479 82.5996 108.93 81.252C107.224 79.7611 106.371 77.8079 106.371 75.3926ZM108.666 75.4219C108.666 77.0885 109.226 78.459 110.346 79.5332C111.459 80.6074 112.745 81.1445 114.203 81.1445C115.785 81.1445 117.12 80.5977 118.207 79.5039C119.294 78.3971 119.838 77.0495 119.838 75.4609C119.838 73.8529 119.301 72.5052 118.227 71.418C117.159 70.3242 115.837 69.7773 114.262 69.7773C112.693 69.7773 111.368 70.3242 110.287 71.418C109.206 72.4987 108.666 73.8333 108.666 75.4219ZM133.09 79.3379H126.635L124.955 83H122.504L129.965 66.9746L137.162 83H134.672L133.09 79.3379ZM132.162 77.1992L129.926 72.0723L127.582 77.1992H132.162ZM139.057 83V67.9219H142.221C143.738 67.9219 144.936 68.0716 145.814 68.3711C146.758 68.6641 147.615 69.1621 148.383 69.8652C149.939 71.2845 150.717 73.1497 150.717 75.4609C150.717 77.7786 149.906 79.6536 148.285 81.0859C147.471 81.8021 146.618 82.3001 145.727 82.5801C144.893 82.86 143.712 83 142.182 83H139.057ZM141.332 80.8613H142.357C143.38 80.8613 144.229 80.7539 144.906 80.5391C145.583 80.3112 146.195 79.9499 146.742 79.4551C147.862 78.4329 148.422 77.1016 148.422 75.4609C148.422 73.8073 147.868 72.4661 146.762 71.4375C145.766 70.5195 144.298 70.0605 142.357 70.0605H141.332V80.8613ZM164.73 68.7324V71.4277C163.415 70.3275 162.055 69.7773 160.648 69.7773C159.099 69.7773 157.794 70.334 156.732 71.4473C155.665 72.554 155.131 73.9082 155.131 75.5098C155.131 77.0918 155.665 78.4264 156.732 79.5137C157.8 80.6009 159.109 81.1445 160.658 81.1445C161.459 81.1445 162.139 81.0143 162.699 80.7539C163.012 80.6237 163.334 80.4479 163.666 80.2266C164.005 80.0052 164.359 79.7383 164.73 79.4258V82.1699C163.428 82.9056 162.061 83.2734 160.629 83.2734C158.474 83.2734 156.635 82.5215 155.111 81.0176C153.594 79.5007 152.836 77.6712 152.836 75.5293C152.836 73.6087 153.471 71.8965 154.74 70.3926C156.303 68.5501 158.324 67.6289 160.805 67.6289C162.159 67.6289 163.467 67.9967 164.73 68.7324ZM176.84 79.3379H170.385L168.705 83H166.254L173.715 66.9746L180.912 83H178.422L176.84 79.3379ZM175.912 77.1992L173.676 72.0723L171.332 77.1992H175.912ZM191.332 70.168L189.486 71.2617C189.141 70.6628 188.812 70.2721 188.5 70.0898C188.174 69.8815 187.755 69.7773 187.24 69.7773C186.609 69.7773 186.085 69.9564 185.668 70.3145C185.251 70.666 185.043 71.1087 185.043 71.6426C185.043 72.3783 185.59 72.9707 186.684 73.4199L188.188 74.0352C189.411 74.5299 190.307 75.1354 190.873 75.8516C191.439 76.5612 191.723 77.4336 191.723 78.4688C191.723 79.8555 191.26 81.0013 190.336 81.9062C189.405 82.8177 188.249 83.2734 186.869 83.2734C185.561 83.2734 184.48 82.8861 183.627 82.1113C182.787 81.3366 182.263 80.2461 182.055 78.8398L184.359 78.332C184.464 79.2174 184.646 79.8294 184.906 80.168C185.375 80.819 186.059 81.1445 186.957 81.1445C187.667 81.1445 188.256 80.9069 188.725 80.4316C189.193 79.9564 189.428 79.3542 189.428 78.625C189.428 78.332 189.385 78.0651 189.301 77.8242C189.223 77.5768 189.096 77.3522 188.92 77.1504C188.751 76.9421 188.529 76.75 188.256 76.5742C187.982 76.3919 187.657 76.2194 187.279 76.0566L185.824 75.4512C183.76 74.5788 182.729 73.3027 182.729 71.623C182.729 70.4902 183.161 69.543 184.027 68.7812C184.893 68.013 185.971 67.6289 187.26 67.6289C188.998 67.6289 190.355 68.4753 191.332 70.168ZM198.92 70.0605V83H196.645V70.0605H193.178V67.9219H202.377V70.0605H198.92ZM214.74 70.0605V83H212.465V70.0605H208.998V67.9219H218.197V70.0605H214.74ZM222.504 73.8203H229.008V67.9219H231.283V83H229.008V75.959H222.504V83H220.229V67.9219H222.504V73.8203ZM243.217 70.0605H237.172V73.6836H243.041V75.8223H237.172V80.8613H243.217V83H234.896V67.9219H243.217V70.0605ZM252.377 83V66.8965L263.373 78.4004V67.9219H265.648V83.918L254.652 72.4434V83H252.377ZM271.547 67.9219V83H269.271V67.9219H271.547ZM282.924 75.1484H289.154V75.6465C289.154 76.7793 289.021 77.7819 288.754 78.6543C288.493 79.4616 288.054 80.2168 287.436 80.9199C286.036 82.4954 284.255 83.2832 282.094 83.2832C279.984 83.2832 278.178 82.5215 276.674 80.998C275.17 79.4681 274.418 77.6322 274.418 75.4902C274.418 73.3027 275.183 71.4473 276.713 69.9238C278.243 68.3939 280.105 67.6289 282.299 67.6289C283.477 67.6289 284.577 67.8698 285.6 68.3516C286.576 68.8333 287.536 69.6146 288.48 70.6953L286.859 72.248C285.622 70.6009 284.115 69.7773 282.338 69.7773C280.743 69.7773 279.405 70.3275 278.324 71.4277C277.243 72.5085 276.703 73.8626 276.703 75.4902C276.703 77.1699 277.305 78.5534 278.51 79.6406C279.636 80.6497 280.857 81.1543 282.172 81.1543C283.292 81.1543 284.298 80.7767 285.189 80.0215C286.081 79.2598 286.579 78.3483 286.684 77.2871H282.924V75.1484ZM300.346 70.0605H294.301V73.6836H300.17V75.8223H294.301V80.8613H300.346V83H292.025V67.9219H300.346V70.0605ZM308.441 76.5742L313.109 83H310.326L306.02 76.8281H305.609V83H303.334V67.9219H306C307.992 67.9219 309.431 68.2962 310.316 69.0449C311.293 69.8783 311.781 70.9785 311.781 72.3457C311.781 73.4134 311.475 74.3314 310.863 75.0996C310.251 75.8678 309.444 76.3594 308.441 76.5742ZM305.609 74.8457H306.332C308.487 74.8457 309.564 74.0221 309.564 72.375C309.564 70.832 308.516 70.0605 306.42 70.0605H305.609V74.8457ZM317.66 67.9219V83H315.385V67.9219H317.66ZM330.141 79.3379H323.686L322.006 83H319.555L327.016 66.9746L334.213 83H331.723L330.141 79.3379ZM329.213 77.1992L326.977 72.0723L324.633 77.1992H329.213ZM40.082 112.877V119H37.8066V103.922H40.3848C41.6478 103.922 42.6016 104.01 43.2461 104.186C43.8971 104.361 44.4701 104.693 44.9648 105.182C45.8307 106.028 46.2637 107.096 46.2637 108.385C46.2637 109.765 45.8014 110.859 44.877 111.666C43.9525 112.473 42.7057 112.877 41.1367 112.877H40.082ZM40.082 110.768H40.9316C43.0215 110.768 44.0664 109.964 44.0664 108.355C44.0664 106.799 42.9889 106.021 40.834 106.021H40.082V110.768ZM53.7148 112.574L58.3828 119H55.5996L51.293 112.828H50.8828V119H48.6074V103.922H51.2734C53.2656 103.922 54.7044 104.296 55.5898 105.045C56.5664 105.878 57.0547 106.979 57.0547 108.346C57.0547 109.413 56.7487 110.331 56.1367 111.1C55.5247 111.868 54.7174 112.359 53.7148 112.574ZM50.8828 110.846H51.6055C53.7604 110.846 54.8379 110.022 54.8379 108.375C54.8379 106.832 53.7897 106.061 51.6934 106.061H50.8828V110.846ZM68.9785 106.061H62.9336V109.684H68.8027V111.822H62.9336V116.861H68.9785V119H60.6582V103.922H68.9785V106.061ZM80.4922 106.168L78.6465 107.262C78.3014 106.663 77.9727 106.272 77.6602 106.09C77.3346 105.882 76.9147 105.777 76.4004 105.777C75.7689 105.777 75.2448 105.956 74.8281 106.314C74.4115 106.666 74.2031 107.109 74.2031 107.643C74.2031 108.378 74.75 108.971 75.8438 109.42L77.3477 110.035C78.5716 110.53 79.4668 111.135 80.0332 111.852C80.5996 112.561 80.8828 113.434 80.8828 114.469C80.8828 115.855 80.4206 117.001 79.4961 117.906C78.5651 118.818 77.4095 119.273 76.0293 119.273C74.7207 119.273 73.64 118.886 72.7871 118.111C71.9473 117.337 71.4232 116.246 71.2148 114.84L73.5195 114.332C73.6237 115.217 73.806 115.829 74.0664 116.168C74.5352 116.819 75.2188 117.145 76.1172 117.145C76.8268 117.145 77.416 116.907 77.8848 116.432C78.3535 115.956 78.5879 115.354 78.5879 114.625C78.5879 114.332 78.5456 114.065 78.4609 113.824C78.3828 113.577 78.2559 113.352 78.0801 113.15C77.9108 112.942 77.6895 112.75 77.416 112.574C77.1426 112.392 76.8171 112.219 76.4395 112.057L74.9844 111.451C72.9206 110.579 71.8887 109.303 71.8887 107.623C71.8887 106.49 72.3216 105.543 73.1875 104.781C74.0534 104.013 75.1309 103.629 76.4199 103.629C78.1582 103.629 79.5156 104.475 80.4922 106.168ZM85.9023 103.922V119H83.627V103.922H85.9023ZM89.5254 119V103.922H92.6895C94.2064 103.922 95.4043 104.072 96.2832 104.371C97.2272 104.664 98.0833 105.162 98.8516 105.865C100.408 107.285 101.186 109.15 101.186 111.461C101.186 113.779 100.375 115.654 98.7539 117.086C97.9401 117.802 97.0872 118.3 96.1953 118.58C95.362 118.86 94.1803 119 92.6504 119H89.5254ZM91.8008 116.861H92.8262C93.8483 116.861 94.6979 116.754 95.375 116.539C96.0521 116.311 96.6641 115.95 97.2109 115.455C98.3307 114.433 98.8906 113.102 98.8906 111.461C98.8906 109.807 98.3372 108.466 97.2305 107.438C96.2344 106.52 94.7663 106.061 92.8262 106.061H91.8008V116.861ZM112.377 106.061H106.332V109.684H112.201V111.822H106.332V116.861H112.377V119H104.057V103.922H112.377V106.061ZM115.365 119V102.896L126.361 114.4V103.922H128.637V119.918L117.641 108.443V119H115.365ZM136.42 106.061V119H134.145V106.061H130.678V103.922H139.877V106.061H136.42ZM144.184 103.922V119H141.908V103.922H144.184ZM156.664 115.338H150.209L148.529 119H146.078L153.539 102.975L160.736 119H158.246L156.664 115.338ZM155.736 113.199L153.5 108.072L151.156 113.199H155.736ZM164.906 103.922V116.861H169.34V119H162.631V103.922H164.906ZM185.99 106.061H179.945V109.684H185.814V111.822H179.945V116.861H185.99V119H177.67V103.922H185.99V106.061ZM191.254 103.922V116.861H195.688V119H188.979V103.922H191.254ZM206.166 106.061H200.121V109.684H205.99V111.822H200.121V116.861H206.166V119H197.846V103.922H206.166V106.061ZM220.297 104.732V107.428C218.982 106.327 217.621 105.777 216.215 105.777C214.665 105.777 213.36 106.334 212.299 107.447C211.231 108.554 210.697 109.908 210.697 111.51C210.697 113.092 211.231 114.426 212.299 115.514C213.367 116.601 214.675 117.145 216.225 117.145C217.025 117.145 217.706 117.014 218.266 116.754C218.578 116.624 218.9 116.448 219.232 116.227C219.571 116.005 219.926 115.738 220.297 115.426V118.17C218.995 118.906 217.628 119.273 216.195 119.273C214.04 119.273 212.201 118.521 210.678 117.018C209.161 115.501 208.402 113.671 208.402 111.529C208.402 109.609 209.037 107.896 210.307 106.393C211.869 104.55 213.891 103.629 216.371 103.629C217.725 103.629 219.034 103.997 220.297 104.732ZM227.338 106.061V119H225.062V106.061H221.596V103.922H230.795V106.061H227.338ZM235.102 103.922V119H232.826V103.922H235.102ZM237.973 111.393C237.973 109.27 238.751 107.447 240.307 105.924C241.856 104.4 243.718 103.639 245.893 103.639C248.041 103.639 249.883 104.407 251.42 105.943C252.963 107.48 253.734 109.326 253.734 111.48C253.734 113.648 252.96 115.488 251.41 116.998C249.854 118.515 247.976 119.273 245.775 119.273C243.829 119.273 242.081 118.6 240.531 117.252C238.826 115.761 237.973 113.808 237.973 111.393ZM240.268 111.422C240.268 113.089 240.827 114.459 241.947 115.533C243.061 116.607 244.346 117.145 245.805 117.145C247.387 117.145 248.721 116.598 249.809 115.504C250.896 114.397 251.439 113.049 251.439 111.461C251.439 109.853 250.902 108.505 249.828 107.418C248.76 106.324 247.439 105.777 245.863 105.777C244.294 105.777 242.969 106.324 241.889 107.418C240.808 108.499 240.268 109.833 240.268 111.422ZM256.596 119V102.896L267.592 114.4V103.922H269.867V119.918L258.871 108.443V119H256.596ZM281.938 112.877V119H279.662V103.922H282.24C283.503 103.922 284.457 104.01 285.102 104.186C285.753 104.361 286.326 104.693 286.82 105.182C287.686 106.028 288.119 107.096 288.119 108.385C288.119 109.765 287.657 110.859 286.732 111.666C285.808 112.473 284.561 112.877 282.992 112.877H281.938ZM281.938 110.768H282.787C284.877 110.768 285.922 109.964 285.922 108.355C285.922 106.799 284.844 106.021 282.689 106.021H281.938V110.768ZM298.783 106.061H292.738V109.684H298.607V111.822H292.738V116.861H298.783V119H290.463V103.922H298.783V106.061ZM305.932 106.061V119H303.656V106.061H300.189V103.922H309.389V106.061H305.932ZM313.695 103.922V119H311.42V103.922H313.695ZM321.479 106.061V119H319.203V106.061H315.736V103.922H324.936V106.061H321.479ZM329.242 103.922V119H326.967V103.922H329.242ZM332.113 111.393C332.113 109.27 332.891 107.447 334.447 105.924C335.997 104.4 337.859 103.639 340.033 103.639C342.182 103.639 344.024 104.407 345.561 105.943C347.104 107.48 347.875 109.326 347.875 111.48C347.875 113.648 347.1 115.488 345.551 116.998C343.995 118.515 342.117 119.273 339.916 119.273C337.969 119.273 336.221 118.6 334.672 117.252C332.966 115.761 332.113 113.808 332.113 111.393ZM334.408 111.422C334.408 113.089 334.968 114.459 336.088 115.533C337.201 116.607 338.487 117.145 339.945 117.145C341.527 117.145 342.862 116.598 343.949 115.504C345.036 114.397 345.58 113.049 345.58 111.461C345.58 109.853 345.043 108.505 343.969 107.418C342.901 106.324 341.579 105.777 340.004 105.777C338.435 105.777 337.11 106.324 336.029 107.418C334.949 108.499 334.408 109.833 334.408 111.422ZM350.736 119V102.896L361.732 114.4V103.922H364.008V119.918L353.012 108.443V119H350.736ZM41.9668 142.061V155H39.6914V142.061H36.2246V139.922H45.4238V142.061H41.9668ZM52.5625 148.574L57.2305 155H54.4473L50.1406 148.828H49.7305V155H47.4551V139.922H50.1211C52.1133 139.922 53.5521 140.296 54.4375 141.045C55.4141 141.878 55.9023 142.979 55.9023 144.346C55.9023 145.413 55.5964 146.331 54.9844 147.1C54.3724 147.868 53.5651 148.359 52.5625 148.574ZM49.7305 146.846H50.4531C52.6081 146.846 53.6855 146.022 53.6855 144.375C53.6855 142.832 52.6374 142.061 50.541 142.061H49.7305V146.846ZM61.7812 139.922V155H59.5059V139.922H61.7812ZM65.4043 155V139.922H67.6699C68.679 139.922 69.4831 140 70.082 140.156C70.6875 140.312 71.1986 140.576 71.6152 140.947C72.0384 141.331 72.3737 141.81 72.6211 142.383C72.875 142.962 73.002 143.548 73.002 144.141C73.002 145.221 72.5885 146.136 71.7617 146.885C72.5625 147.158 73.194 147.637 73.6562 148.32C74.125 148.997 74.3594 149.785 74.3594 150.684C74.3594 151.862 73.9427 152.858 73.1094 153.672C72.6081 154.173 72.0449 154.521 71.4199 154.717C70.7363 154.906 69.8802 155 68.8516 155H65.4043ZM67.6797 146.396H68.3926C69.2389 146.396 69.8574 146.211 70.248 145.84C70.6452 145.462 70.8438 144.909 70.8438 144.18C70.8438 143.47 70.6419 142.933 70.2383 142.568C69.8346 142.197 69.2487 142.012 68.4805 142.012H67.6797V146.396ZM67.6797 152.861H69.0859C70.1146 152.861 70.8698 152.66 71.3516 152.256C71.8594 151.82 72.1133 151.266 72.1133 150.596C72.1133 149.945 71.8691 149.398 71.3809 148.955C70.9056 148.519 70.056 148.301 68.832 148.301H67.6797V152.861ZM79.5156 139.922V149.004C79.5156 150.299 79.7272 151.247 80.1504 151.846C80.7819 152.712 81.6706 153.145 82.8164 153.145C83.9688 153.145 84.8607 152.712 85.4922 151.846C85.9154 151.266 86.127 150.319 86.127 149.004V139.922H88.4023V149.629C88.4023 151.217 87.9076 152.526 86.918 153.555C85.8047 154.701 84.4375 155.273 82.8164 155.273C81.1953 155.273 79.8314 154.701 78.7246 153.555C77.735 152.526 77.2402 151.217 77.2402 149.629V139.922H79.5156ZM92.0254 155V138.896L103.021 150.4V139.922H105.297V155.918L94.3008 144.443V155H92.0254ZM117.895 151.338H111.439L109.76 155H107.309L114.77 138.975L121.967 155H119.477L117.895 151.338ZM116.967 149.199L114.73 144.072L112.387 149.199H116.967ZM126.137 139.922V152.861H130.57V155H123.861V139.922H126.137ZM131.332 149.209H135.688V151.123H131.332V149.209ZM139.77 148.877V155H137.494V139.922H140.072C141.335 139.922 142.289 140.01 142.934 140.186C143.585 140.361 144.158 140.693 144.652 141.182C145.518 142.028 145.951 143.096 145.951 144.385C145.951 145.765 145.489 146.859 144.564 147.666C143.64 148.473 142.393 148.877 140.824 148.877H139.77ZM139.77 146.768H140.619C142.709 146.768 143.754 145.964 143.754 144.355C143.754 142.799 142.676 142.021 140.521 142.021H139.77V146.768ZM156.615 142.061H150.57V145.684H156.439V147.822H150.57V152.861H156.615V155H148.295V139.922H156.615V142.061ZM161.879 148.877V155H159.604V139.922H162.182C163.445 139.922 164.398 140.01 165.043 140.186C165.694 140.361 166.267 140.693 166.762 141.182C167.628 142.028 168.061 143.096 168.061 144.385C168.061 145.765 167.598 146.859 166.674 147.666C165.749 148.473 164.503 148.877 162.934 148.877H161.879ZM161.879 146.768H162.729C164.818 146.768 165.863 145.964 165.863 144.355C165.863 142.799 164.786 142.021 162.631 142.021H161.879V146.768ZM174.564 142.061V155H172.289V142.061H168.822V139.922H178.021V142.061H174.564Z" fill="#1A1A1A"/>
<rect x="0.5" y="0.5" width="453" height="455" rx="29.5" stroke="#010080"/>
<defs>
<clipPath id="clip0_22_78">
<rect width="386" height="18" fill="white" transform="translate(44 260)"/>
</clipPath>
</defs>
</svg>
