<svg width="69" height="68" viewBox="0 0 69 68" fill="none" xmlns="http://www.w3.org/2000/svg">
<path d="M28.9615 61.7247L29.7677 61.4281C29.8528 61.6867 29.9829 61.8281 30.1579 61.8521C30.2414 61.8636 30.3166 61.8451 30.3836 61.7967C30.4503 61.751 30.4895 61.6851 30.5014 61.5989C30.5221 61.4482 30.3676 61.2747 30.0379 61.0785C29.5845 60.8049 29.2863 60.5691 29.1434 60.3712C29.0005 60.1732 28.9495 59.9262 28.9902 59.63C29.0423 59.2503 29.226 58.9519 29.5412 58.7346C29.8465 58.5296 30.1916 58.4536 30.5766 58.5065C31.2363 58.5972 31.6592 58.9832 31.8454 59.6644L31.0205 59.9173C30.9387 59.714 30.8731 59.5829 30.8236 59.524C30.7273 59.4065 30.6024 59.3372 30.4489 59.3161C30.1419 59.2739 29.9692 59.3928 29.9307 59.6728C29.9085 59.8344 30.0063 60.0015 30.224 60.174C30.3092 60.2324 30.3947 60.2894 30.4803 60.3451C30.5659 60.4007 30.6527 60.4579 30.7406 60.5166C30.9867 60.6822 31.1548 60.8369 31.2447 60.981C31.3594 61.1641 31.399 61.3849 31.3635 61.6434C31.3165 61.9853 31.1605 62.2519 30.8956 62.4432C30.6252 62.6337 30.3191 62.7055 29.9771 62.6585C29.4736 62.5893 29.1351 62.278 28.9615 61.7247Z" fill="#1A1A1A"/>
<path d="M22.1488 59.8094L22.6344 58.6913C22.7246 59.009 22.8268 59.2445 22.9409 59.3978C23.0515 59.5525 23.2078 59.6738 23.4097 59.7615C23.7263 59.899 24.0375 59.9023 24.3432 59.7714C24.649 59.6405 24.8744 59.408 25.0195 59.074C25.1678 58.7324 25.1887 58.4081 25.0821 58.1011C24.9729 57.7929 24.7601 57.5701 24.4435 57.4326C24.2416 57.3449 24.0444 57.3111 23.8519 57.3312C23.6656 57.351 23.4184 57.4392 23.1103 57.5958L23.5927 56.4852C24.0111 56.4566 24.391 56.5164 24.7326 56.6648C25.2959 56.9095 25.688 57.2961 25.9088 57.8246C26.1286 58.3556 26.1204 58.8929 25.8844 59.4363C25.6483 59.9797 25.2572 60.355 24.7109 60.5622C24.1645 60.7694 23.6122 60.7517 23.0538 60.5091C22.6948 60.3532 22.3932 60.12 22.1488 59.8094Z" fill="#1A1A1A"/>
<path d="M17.1981 56.8536L16.4866 56.2748L16.7104 55.9996C16.4682 56.0303 16.2759 56.0298 16.1336 55.9981C15.9874 55.9667 15.8437 55.8936 15.7024 55.7787C15.5148 55.626 15.3685 55.4054 15.2634 55.1167L16.1191 54.7303C16.1752 54.937 16.2675 55.0927 16.3961 55.1974C16.784 55.5129 17.2164 55.3777 17.6932 54.7916L18.9924 53.1946L19.704 53.7735L17.1981 56.8536Z" fill="#1A1A1A"/>
<path d="M13.8393 50.8495C13.3708 51.1802 12.8539 51.2939 12.2886 51.1905C11.7234 51.0872 11.2707 50.7947 10.9306 50.3128C10.5889 49.8288 10.4644 49.3013 10.557 48.7302C10.6527 48.1637 10.9415 47.7103 11.4233 47.3702C11.9096 47.027 12.4353 46.907 13.0006 47.0103C13.5652 47.1174 14.0207 47.4163 14.3671 47.907C14.7103 48.3933 14.8314 48.9183 14.7303 49.482C14.6337 50.0426 14.3367 50.4984 13.8393 50.8495ZM13.3119 50.074C13.6361 49.8452 13.8314 49.5776 13.8979 49.2712C13.9635 48.9588 13.8936 48.6571 13.6883 48.3662C13.4814 48.0732 13.2217 47.9055 12.9091 47.8633C12.5966 47.8211 12.2826 47.9113 11.9673 48.1339C11.6521 48.3564 11.462 48.622 11.397 48.9307C11.3315 49.2431 11.4013 49.5447 11.6067 49.8356C11.8088 50.122 12.0681 50.2867 12.3844 50.3295C12.7008 50.3723 13.0099 50.2872 13.3119 50.074Z" fill="#1A1A1A"/>
<path d="M4.67282 43.8533L11.1608 41.5475L11.468 42.4118L4.97999 44.7176L4.67282 43.8533Z" fill="#1A1A1A"/>
<path d="M3.13882 35.3036L10.0083 34.8337L10.0709 35.7488L3.20142 36.2187L3.13882 35.3036Z" fill="#1A1A1A"/>
<path d="M10.2895 20.5958L13.0549 22.0288L12.6329 22.8432L9.86746 21.4103L9.68741 21.7577L8.92728 21.3639L9.10734 21.0164L7.81512 20.3468L8.23712 19.5324L9.52933 20.202L9.85756 19.5685L10.6177 19.9624L10.2895 20.5958Z" fill="#1A1A1A"/>
<path d="M14.2015 16.701C13.7824 16.3096 13.566 15.8266 13.5521 15.2521C13.5382 14.6777 13.7326 14.1749 14.1351 13.7439C14.5395 13.3109 15.0307 13.0816 15.6086 13.0561C16.1828 13.0346 16.6854 13.2251 17.1165 13.6276C17.5515 14.0339 17.7759 14.5243 17.7897 15.0987C17.7998 15.6733 17.5998 16.1801 17.1898 16.6191C16.7836 17.0541 16.2942 17.2794 15.7217 17.2951C15.1532 17.3146 14.6465 17.1165 14.2015 16.701ZM14.8534 16.0268C15.1434 16.2977 15.4452 16.4345 15.7587 16.4372C16.078 16.4379 16.3591 16.3081 16.6021 16.0479C16.8469 15.7857 16.9582 15.4973 16.936 15.1827C16.9137 14.8681 16.7615 14.5791 16.4795 14.3157C16.1974 14.0523 15.8987 13.9202 15.5833 13.9194C15.2641 13.9188 14.983 14.0486 14.74 14.3088C14.5006 14.565 14.3922 14.8523 14.4146 15.1708C14.437 15.4892 14.5833 15.7746 14.8534 16.0268Z" fill="#1A1A1A"/>
<path d="M29.5063 6.15777L28.8851 6.75098C28.7039 6.54771 28.5283 6.46991 28.3582 6.51757C28.2771 6.5403 28.2154 6.58721 28.1732 6.6583C28.1303 6.72677 28.1206 6.80288 28.1441 6.88662C28.1851 7.03318 28.3959 7.13076 28.7765 7.17937C29.3014 7.24963 29.6688 7.34708 29.8787 7.47173C30.0886 7.59637 30.2339 7.80263 30.3146 8.0905C30.418 8.4595 30.3684 8.80644 30.1659 9.13132C29.9676 9.44091 29.6813 9.64813 29.3071 9.75299C28.6659 9.93263 28.1242 9.74712 27.682 9.19644L28.3378 8.63589C28.4938 8.78975 28.6063 8.88385 28.6752 8.91817C28.8103 8.98756 28.9525 9.00135 29.1017 8.95955C29.4 8.87596 29.5111 8.69808 29.4348 8.42591C29.3908 8.26889 29.2346 8.1546 28.9662 8.08304C28.8647 8.06348 28.7636 8.04523 28.6629 8.02829C28.5622 8.01135 28.4598 7.99347 28.3558 7.97464C28.0641 7.92088 27.8483 7.84586 27.7085 7.74957C27.5303 7.62733 27.406 7.44059 27.3356 7.18936C27.2425 6.857 27.2793 6.55031 27.4461 6.2693C27.6182 5.98683 27.8704 5.79903 28.2028 5.70591C28.6921 5.56879 29.1267 5.71941 29.5063 6.15777Z" fill="#1A1A1A"/>
<path d="M36.9508 7.23071L34.1053 7.23071C34.1297 7.55684 34.2357 7.81639 34.4233 8.00936C34.6108 8.19961 34.8513 8.29473 35.1448 8.29473C35.3731 8.29473 35.562 8.24037 35.7115 8.13166C35.8583 8.02295 36.0254 7.82183 36.2129 7.52831L36.9875 7.96044C36.8679 8.16427 36.7416 8.33957 36.6084 8.48633C36.4752 8.63038 36.3325 8.74996 36.1803 8.84508C36.0281 8.93749 35.8637 9.00544 35.687 9.04892C35.5104 9.09241 35.3188 9.11415 35.1122 9.11415C34.5197 9.11415 34.0441 8.9239 33.6854 8.54341C33.3266 8.1602 33.1473 7.65197 33.1473 7.01872C33.1473 6.3909 33.3212 5.88267 33.6691 5.49403C34.0197 5.11082 34.4844 4.91921 35.0633 4.91921C35.6476 4.91921 36.1097 5.10538 36.4494 5.47772C36.7864 5.84734 36.9549 6.35965 36.9549 7.01464L36.9508 7.23071ZM36.0091 6.48059C35.8814 5.99139 35.5729 5.74678 35.0837 5.74678C34.9723 5.74678 34.8676 5.76445 34.7698 5.79978C34.6719 5.83239 34.5823 5.88132 34.5007 5.94654C34.4219 6.00905 34.354 6.08515 34.2969 6.17484C34.2398 6.26453 34.1963 6.36644 34.1664 6.48059L36.0091 6.48059Z" fill="#1A1A1A"/>
<path d="M44.1004 8.74763L41.3604 7.97991C41.2959 8.30055 41.328 8.57907 41.4565 8.81548C41.5857 9.04926 41.7917 9.20575 42.0743 9.28494C42.2941 9.34654 42.4907 9.34516 42.664 9.28081C42.8346 9.21572 43.0498 9.06716 43.3096 8.83511L43.9388 9.4602C43.7687 9.62421 43.5997 9.75891 43.4319 9.8643C43.2648 9.96708 43.0951 10.0437 42.9229 10.0943C42.7514 10.1422 42.5748 10.1632 42.3929 10.1575C42.2111 10.1517 42.0207 10.1209 41.8218 10.0652C41.2513 9.90533 40.8447 9.59382 40.6019 9.13064C40.3598 8.66485 40.3242 8.12708 40.4951 7.51731C40.6644 6.91278 40.9691 6.47032 41.4089 6.18994C41.8499 5.91553 42.3491 5.85642 42.9065 6.0126C43.4692 6.17025 43.8638 6.47417 44.0905 6.92436C44.3153 7.3712 44.3393 7.90997 44.1626 8.54067L44.1004 8.74763ZM43.396 7.77126C43.405 7.26573 43.1739 6.94697 42.7029 6.81499C42.5956 6.78492 42.49 6.7737 42.3863 6.78133C42.2833 6.78633 42.1837 6.80924 42.0876 6.85005C41.9948 6.88898 41.9089 6.94393 41.8297 7.01489C41.7506 7.08585 41.6812 7.17226 41.6216 7.27411L43.396 7.77126Z" fill="#1A1A1A"/>
<path d="M51.3925 18.0836L50.7664 17.4132L55.2474 13.2282L55.8735 13.8986L55.5577 14.1935C56.0686 14.211 56.4808 14.3875 56.7943 14.7232C57.1672 15.1225 57.3272 15.5885 57.2744 16.1212C57.2272 16.6561 56.9812 17.1313 56.5363 17.5468C56.1013 17.9531 55.6173 18.1615 55.0843 18.1722C54.5551 18.1829 54.1069 17.9917 53.7396 17.5984C53.4224 17.2587 53.2746 16.8278 53.2963 16.3055L51.3925 18.0836ZM55.8933 16.8644C56.1714 16.6046 56.3274 16.3177 56.3612 16.0035C56.3951 15.6855 56.3036 15.4102 56.0865 15.1778C55.8565 14.9315 55.5846 14.8117 55.271 14.8183C54.9573 14.8249 54.6615 14.958 54.3834 15.2177C54.1113 15.4719 53.9582 15.758 53.9243 16.076C53.8925 16.3883 53.9916 16.6677 54.2216 16.914C54.4386 17.1464 54.705 17.2564 55.0208 17.2441C55.3403 17.2358 55.6311 17.1092 55.8933 16.8644Z" fill="#1A1A1A"/>
<path d="M59.6677 23.4087L58.3585 20.8822C58.0802 21.054 57.8985 21.2675 57.8135 21.5228C57.7308 21.7768 57.757 22.0341 57.8921 22.2947C57.9971 22.4974 58.1323 22.6401 58.2976 22.7228C58.4616 22.8031 58.7171 22.859 59.064 22.8905L59.0366 23.777C58.8006 23.7646 58.5869 23.7331 58.3953 23.6823C58.2061 23.6304 58.0343 23.5587 57.8798 23.4673C57.7277 23.3747 57.5918 23.26 57.4719 23.1231C57.352 22.9863 57.2445 22.8262 57.1495 22.6428C56.8769 22.1167 56.827 21.6069 56.9998 21.1133C57.175 20.6185 57.5438 20.2254 58.106 19.934C58.6634 19.6452 59.1947 19.5658 59.6998 19.6959C60.2014 19.8309 60.5853 20.1554 60.8516 20.6694C61.1205 21.1882 61.1677 21.6841 60.9934 22.157C60.8203 22.6263 60.4429 23.0116 59.8614 23.3129L59.6677 23.4087ZM59.9004 22.2275C60.276 21.889 60.3513 21.5026 60.1262 21.0682C60.075 20.9693 60.0111 20.8845 59.9348 20.8139C59.8608 20.742 59.7761 20.6849 59.6807 20.6425C59.5889 20.6013 59.4901 20.576 59.3842 20.5666C59.2783 20.5571 59.1678 20.5654 59.0527 20.5914L59.9004 22.2275Z" fill="#1A1A1A"/>
<path d="M62.6392 28.7948L59.5897 29.4285L59.4031 28.5305L62.4525 27.8968L62.3729 27.5136L63.2111 27.3394L63.2907 27.7226L64.7157 27.4265L64.9023 28.3246L63.4774 28.6207L63.6225 29.3192L62.7843 29.4933L62.6392 28.7948Z" fill="#1A1A1A"/>
<path d="M63.8489 36.8448L59.8875 36.5739L59.9501 35.6587L63.9115 35.9297L63.8489 36.8448ZM65.5682 35.9041C65.7282 35.9151 65.8625 35.9828 65.9711 36.1074C66.0797 36.2319 66.1284 36.3756 66.1173 36.5383C66.106 36.7037 66.0381 36.8407 65.9135 36.9493C65.7916 37.0581 65.648 37.1068 65.4826 37.0955C65.3172 37.0842 65.1802 37.0163 65.0716 36.8917C64.9628 36.7698 64.914 36.6262 64.9254 36.4608C64.9367 36.2954 65.0046 36.1584 65.1292 36.0498C65.2537 35.9412 65.4001 35.8926 65.5682 35.9041Z" fill="#1A1A1A"/>
<path d="M61.3201 43.9094L58.3853 42.8664L58.6925 42.0021L61.6273 43.0451L61.7583 42.6763L62.565 42.963L62.434 43.3318L63.8053 43.8192L63.4981 44.6835L62.1268 44.1961L61.8879 44.8683L61.0812 44.5816L61.3201 43.9094Z" fill="#1A1A1A"/>
<path d="M58.1709 51.416L54.9269 49.1262L55.4559 48.3768L58.6998 50.6666L58.1709 51.416ZM60.1286 51.5055C60.2596 51.598 60.3392 51.7257 60.3673 51.8886C60.3953 52.0514 60.3624 52.1995 60.2683 52.3327C60.1727 52.4681 60.0435 52.5499 59.8806 52.578C59.72 52.6076 59.5719 52.5747 59.4365 52.479C59.301 52.3834 59.2193 52.2542 59.1912 52.0913C59.1615 51.9307 59.1945 51.7826 59.2901 51.6472C59.3857 51.5118 59.515 51.43 59.6778 51.4019C59.8407 51.3738 59.991 51.4084 60.1286 51.5055Z" fill="#1A1A1A"/>
<path d="M53.2642 53.9667C53.6261 54.4116 53.7748 54.9195 53.7103 55.4905C53.6458 56.0615 53.3848 56.5331 52.9273 56.9053C52.4677 57.2792 51.9499 57.4395 51.3739 57.386C50.8021 57.3292 50.3301 57.072 49.9579 56.6145C49.5823 56.1528 49.4267 55.6365 49.4912 55.0655C49.5595 54.4948 49.8266 54.02 50.2926 53.641C50.7543 53.2653 51.2698 53.1087 51.8391 53.1711C52.4049 53.2293 52.88 53.4945 53.2642 53.9667ZM52.5265 54.5458C52.2761 54.238 51.9958 54.0614 51.6856 54.016C51.3694 53.9719 51.0732 54.0622 50.797 54.2869C50.5188 54.5133 50.3692 54.7838 50.3485 55.0985C50.3277 55.4132 50.4391 55.7203 50.6827 56.0196C50.9262 56.319 51.2042 56.4905 51.5165 56.5342C51.8327 56.5783 52.1288 56.488 52.405 56.2634C52.677 56.0421 52.8235 55.7722 52.8447 55.4537C52.8658 55.1352 52.7598 54.8325 52.5265 54.5458Z" fill="#1A1A1A"/>
<path d="M47.7342 59.91L46.8892 60.2771L46.743 59.9406C46.5755 60.36 46.3073 60.6498 45.9384 60.8101C45.5146 60.9942 45.1264 61.0043 44.7737 60.8404C44.4708 60.7023 44.2078 60.3766 43.9847 59.863L43.0151 57.6307L43.8601 57.2637L44.7437 59.2978C44.8996 59.6568 45.0572 59.8831 45.2165 59.9769C45.3743 60.0743 45.5816 60.0672 45.8384 59.9557C46.1176 59.8344 46.2757 59.6561 46.3127 59.4208C46.3484 59.189 46.2676 58.8462 46.0706 58.3925L45.3072 56.6351L46.1523 56.2681L47.7342 59.91Z" fill="#1A1A1A"/>
<path d="M42.0699 36.5679L34.535 44.1028L27 36.5679" stroke="#1A1A1A" stroke-width="1.86202" stroke-miterlimit="10" stroke-linecap="square" stroke-linejoin="round"/>
<path d="M34.5349 23V43.8918" stroke="#1A1A1A" stroke-width="1.86202" stroke-miterlimit="10" stroke-linecap="square" stroke-linejoin="round"/>
</svg>
