<svg width="18" height="25" viewBox="0 0 18 25" fill="none" xmlns="http://www.w3.org/2000/svg">
<path d="M9.16822 0.911011C6.11999 0.911011 3.64185 3.38915 3.64185 6.43739C3.64185 9.42744 5.98038 11.8474 9.02861 11.9521C9.12168 11.9405 9.21476 11.9405 9.28457 11.9521C9.30783 11.9521 9.31947 11.9521 9.34274 11.9521C9.35437 11.9521 9.35437 11.9521 9.36601 11.9521C12.3444 11.8474 14.683 9.42744 14.6946 6.43739C14.6946 3.38915 12.2165 0.911011 9.16822 0.911011Z" fill="#010080"/>
<path d="M15.0783 15.047C11.8323 12.8829 6.53857 12.8829 3.26929 15.047C1.79171 16.0359 0.977295 17.3739 0.977295 18.8049C0.977295 20.2359 1.79171 21.5623 3.25765 22.5396C4.88648 23.6332 7.02722 24.18 9.16796 24.18C11.3087 24.18 13.4495 23.6332 15.0783 22.5396C16.5442 21.5506 17.3586 20.2243 17.3586 18.7816C17.347 17.3506 16.5442 16.0243 15.0783 15.047Z" fill="#010080"/>
</svg>
